<svg width="21" height="22" viewBox="0 0 21 22" fill="none" xmlns="http://www.w3.org/2000/svg">
<path d="M8.8421 3.24986L15.4737 8.0713V9.14272C16.2474 9.14272 16.9879 9.24987 17.6842 9.45344V6.99987L8.8421 0.571289L0 6.99987V19.857H8.48842C8.15684 19.1927 7.93579 18.4749 7.82526 17.7142H2.21053V8.0713L8.8421 3.24986Z" fill="#495950"/>
<path d="M15.4736 11.2856C12.4231 11.2856 9.94727 13.6856 9.94727 16.6428C9.94727 19.5999 12.4231 21.9999 15.4736 21.9999C18.5241 21.9999 20.9999 19.5999 20.9999 16.6428C20.9999 13.6856 18.5241 11.2856 15.4736 11.2856ZM18.7894 17.1785H16.0262V19.8571H14.9209V17.1785H12.1578V16.1071H14.9209V13.4285H16.0262V16.1071H18.7894V17.1785Z" fill="#495950"/>
</svg>
