<svg width="11" height="20" viewBox="0 0 11 20" fill="none" xmlns="http://www.w3.org/2000/svg">
<path d="M9.5 4.54545V15C9.5 17.0091 7.71 18.6364 5.5 18.6364C3.29 18.6364 1.5 17.0091 1.5 15V3.63636C1.5 2.38182 2.62 1.36364 4 1.36364C5.38 1.36364 6.5 2.38182 6.5 3.63636V13.1818C6.5 13.6818 6.05 14.0909 5.5 14.0909C4.95 14.0909 4.5 13.6818 4.5 13.1818V4.54545H3V13.1818C3 14.4364 4.12 15.4545 5.5 15.4545C6.88 15.4545 8 14.4364 8 13.1818V3.63636C8 1.62727 6.21 0 4 0C1.79 0 0 1.62727 0 3.63636V15C0 17.7636 2.46 20 5.5 20C8.54 20 11 17.7636 11 15V4.54545H9.5Z" fill="#8F959E"/>
</svg>
