<svg width="152" height="26" viewBox="0 0 152 26" fill="none" xmlns="http://www.w3.org/2000/svg">
<path d="M14.066 7.398C12.2113 7.64067 10.5213 8.29067 8.996 9.348C7.47067 10.4053 6.27467 11.74 5.408 13.352C4.54133 14.964 4.108 16.68 4.108 18.5C4.108 20.112 4.368 21.36 4.888 22.244C5.408 23.128 6.11867 23.57 7.02 23.57C7.852 23.57 8.64933 22.9113 9.412 21.594C10.192 20.2593 10.816 18.5087 11.284 16.342C11.752 14.1753 11.986 11.922 11.986 9.582L15.262 8.516V22.374C15.262 22.738 15.3487 23.0413 15.522 23.284C15.6953 23.5093 15.9207 23.622 16.198 23.622C16.458 23.622 16.718 23.544 16.978 23.388C17.2553 23.232 17.4893 23.0153 17.68 22.738L18.226 23.258C17.446 24.5407 16.328 25.182 14.872 25.182C13.9533 25.182 13.2427 24.896 12.74 24.324C12.2373 23.7347 11.986 22.868 11.986 21.724V18.188H11.804C11.3013 20.5453 10.5473 22.3133 9.542 23.492C8.53667 24.6707 7.306 25.26 5.85 25.26C4.27267 25.26 3.02467 24.7227 2.106 23.648C1.18733 22.5733 0.728 21.0913 0.728 19.202C0.728 16.9833 1.326 14.912 2.522 12.988C3.73533 11.0467 5.356 9.48667 7.384 8.308C9.42933 7.112 11.6567 6.47067 14.066 6.384V7.398ZM30.5642 22.504C30.5642 22.7467 30.6162 22.9633 30.7202 23.154C30.8416 23.3273 31.0149 23.414 31.2402 23.414C31.4656 23.414 31.6909 23.3187 31.9162 23.128C32.1589 22.9373 32.3409 22.7293 32.4622 22.504L33.0342 22.998C32.7222 23.6047 32.2889 24.1247 31.7342 24.558C31.1969 24.974 30.6162 25.182 29.9922 25.182C29.0909 25.182 28.4409 24.9393 28.0422 24.454C27.6436 23.9513 27.4529 23.1887 27.4702 22.166H27.3402C26.9416 23.0673 26.4216 23.8213 25.7802 24.428C25.1389 25.0173 24.3676 25.312 23.4662 25.312C22.5129 25.312 21.6982 25.0693 21.0222 24.584C20.3462 24.0987 19.8349 23.4487 19.4882 22.634C19.1416 21.802 18.9682 20.8833 18.9682 19.878C18.9682 18.5953 19.2282 17.3387 19.7482 16.108C20.2856 14.86 21.0569 13.8373 22.0622 13.04C23.0676 12.2427 24.2376 11.844 25.5722 11.844C26.2482 11.844 26.8636 12.0087 27.4182 12.338V2.068L30.5642 0.975999V22.504ZM25.5202 13.508C24.6882 13.508 23.9949 13.794 23.4402 14.366C22.9029 14.9207 22.5042 15.614 22.2442 16.446C21.9842 17.2607 21.8542 18.0667 21.8542 18.864C21.8542 19.9387 22.0622 20.9613 22.4782 21.932C22.9116 22.9027 23.5876 23.388 24.5062 23.388C25.6156 23.388 26.3782 22.8247 26.7942 21.698C27.2102 20.554 27.4182 19.3147 27.4182 17.98V14.366C26.8462 13.794 26.2136 13.508 25.5202 13.508ZM49.7185 11.766C50.3772 11.766 50.8538 11.9827 51.1485 12.416C51.4605 12.832 51.6165 13.456 51.6165 14.288V22.608C51.6165 22.8507 51.6772 23.0587 51.7985 23.232C51.9198 23.388 52.0845 23.466 52.2925 23.466C52.4832 23.466 52.6912 23.388 52.9165 23.232C53.1592 23.076 53.3845 22.8507 53.5925 22.556L54.0605 23.05C53.6272 23.934 53.0985 24.5147 52.4745 24.792C51.8505 25.052 51.3652 25.182 51.0185 25.182C49.3372 25.182 48.4965 24.272 48.4965 22.452V15.432C48.4965 15.2587 48.4532 15.1027 48.3665 14.964C48.2972 14.8253 48.2018 14.756 48.0805 14.756C47.7165 14.756 47.3352 15.172 46.9365 16.004C46.5552 16.8187 46.2258 17.98 45.9485 19.488C45.6885 20.996 45.5585 22.7207 45.5585 24.662L42.4125 25.338V15.432C42.4125 15.2587 42.3778 15.1027 42.3085 14.964C42.2392 14.8253 42.1438 14.756 42.0225 14.756C41.6932 14.756 41.3205 15.172 40.9045 16.004C40.5058 16.836 40.1592 18.006 39.8645 19.514C39.5872 21.022 39.4485 22.738 39.4485 24.662L36.4325 25.338V14.418C36.4325 14.1407 36.3632 13.924 36.2245 13.768C36.1032 13.5947 35.9385 13.508 35.7305 13.508C35.5225 13.508 35.3058 13.5947 35.0805 13.768C34.8552 13.9413 34.6472 14.184 34.4565 14.496L33.9625 13.976C34.3958 13.0747 34.9332 12.4853 35.5745 12.208C36.2158 11.9133 36.7012 11.766 37.0305 11.766C38.6598 11.766 39.4745 12.676 39.4745 14.496V17.59H39.5785C40.0118 15.77 40.5925 14.3487 41.3205 13.326C42.0658 12.286 42.8372 11.766 43.6345 11.766C44.3278 11.766 44.8132 11.974 45.0905 12.39C45.3678 12.806 45.5065 13.4387 45.5065 14.288V17.59H45.6625C46.0785 15.77 46.6505 14.3487 47.3785 13.326C48.1238 12.286 48.9038 11.766 49.7185 11.766ZM59.0872 9.27L57.4492 9.79L56.3832 4.356L59.9972 3.134L59.0872 9.27ZM59.9192 22.608C59.9192 22.868 59.9799 23.076 60.1012 23.232C60.2226 23.388 60.3872 23.466 60.5952 23.466C61.0286 23.466 61.4706 23.1627 61.9212 22.556L62.3892 23.05C62.0079 23.7433 61.5139 24.272 60.9072 24.636C60.3179 25 59.7286 25.182 59.1392 25.182C57.5619 25.182 56.7732 24.272 56.7732 22.452V13.092L59.9192 12V22.608ZM74.1288 11.766C74.7355 11.766 75.1775 11.948 75.4548 12.312C75.7322 12.6587 75.9055 13.0747 75.9748 13.56C76.0442 14.028 76.0788 14.6347 76.0788 15.38V22.608C76.0788 22.816 76.1395 23.0153 76.2608 23.206C76.3995 23.3793 76.5642 23.466 76.7548 23.466C77.0148 23.466 77.2402 23.388 77.4308 23.232C77.6388 23.0587 77.8555 22.8333 78.0808 22.556L78.5228 23.05C78.2108 23.6567 77.7775 24.168 77.2228 24.584C76.6855 24.9827 76.1048 25.182 75.4808 25.182C74.6488 25.182 74.0248 24.948 73.6088 24.48C73.1928 23.9947 72.9848 23.3187 72.9848 22.452V15.64C72.9848 15.3973 72.9588 15.1893 72.9068 15.016C72.8548 14.8427 72.7335 14.756 72.5428 14.756C71.9535 14.756 71.3555 15.3887 70.7488 16.654C70.1422 17.902 69.6308 19.3407 69.2148 20.97C68.7988 22.5993 68.5908 23.83 68.5908 24.662L65.5488 25.338V14.418C65.5488 14.158 65.4882 13.9413 65.3668 13.768C65.2455 13.5947 65.0722 13.508 64.8468 13.508C64.6042 13.508 64.3615 13.612 64.1188 13.82C63.8935 14.0107 63.7028 14.236 63.5468 14.496L63.0788 13.976C63.3388 13.3693 63.7462 12.8493 64.3008 12.416C64.8555 11.9827 65.4535 11.766 66.0948 11.766C66.9615 11.766 67.5942 12.0087 67.9928 12.494C68.3915 12.962 68.5908 13.6207 68.5908 14.47V19.488H68.6948C69.1628 17.564 69.8562 15.796 70.7748 14.184C71.7108 12.572 72.8288 11.766 74.1288 11.766Z" fill="#533F00"/>
<path d="M94.6424 6.072C96.3758 6.072 97.7711 6.54867 98.8284 7.502C99.9031 8.438 100.44 9.738 100.44 11.402C100.44 12.8407 99.9551 14.1753 98.9844 15.406C98.0138 16.6193 96.7484 17.59 95.1884 18.318C93.6458 19.0287 92.0598 19.384 90.4304 19.384C90.2398 19.384 90.0664 19.3753 89.9104 19.358L90.0404 18.63C91.2191 18.474 92.3544 18.1013 93.4464 17.512C94.5384 16.9053 95.4224 16.1253 96.0984 15.172C96.7918 14.2013 97.1384 13.1093 97.1384 11.896C97.1384 10.6307 96.7744 9.62533 96.0464 8.88C95.3358 8.13467 94.2524 7.762 92.7964 7.762C91.5831 7.762 90.3351 8.048 89.0524 8.62C87.7871 9.192 86.6344 9.93733 85.5944 10.856L84.9184 10.128C86.2184 8.932 87.7004 7.96133 89.3644 7.216C91.0284 6.45333 92.7878 6.072 94.6424 6.072ZM89.8064 24.402L86.6604 25.468V10.778L89.8064 9.712V24.402ZM106.86 12C107.779 12 108.628 12.182 109.408 12.546C110.206 12.91 110.795 13.4733 111.176 14.236L108.654 15.276C108.412 14.8253 108.074 14.4527 107.64 14.158C107.207 13.8633 106.748 13.716 106.262 13.716C105.101 13.716 104.182 14.2013 103.506 15.172C102.83 16.1427 102.492 17.356 102.492 18.812C102.492 20.1467 102.692 21.2473 103.09 22.114C103.489 22.9633 104.122 23.388 104.988 23.388C106.202 23.388 107.034 22.8247 107.484 21.698C107.935 20.554 108.16 19.3147 108.16 17.98V16.836L111.202 15.744V22.504C111.202 22.7467 111.254 22.9633 111.358 23.154C111.48 23.3273 111.653 23.414 111.878 23.414C112.312 23.414 112.754 23.1107 113.204 22.504L113.698 22.998C113.438 23.6047 113.022 24.1247 112.45 24.558C111.896 24.974 111.298 25.182 110.656 25.182C109.824 25.182 109.218 24.9047 108.836 24.35C108.455 23.778 108.264 23.05 108.264 22.166H108.16C107.744 23.102 107.19 23.8647 106.496 24.454C105.803 25.026 104.997 25.312 104.078 25.312C102.692 25.312 101.617 24.8093 100.854 23.804C100.109 22.7813 99.7364 21.4553 99.7364 19.826C99.7364 18.4393 100.031 17.148 100.62 15.952C101.227 14.756 102.068 13.8027 103.142 13.092C104.234 12.364 105.474 12 106.86 12ZM125.24 11.766C125.847 11.766 126.289 11.948 126.566 12.312C126.844 12.6587 127.017 13.0747 127.086 13.56C127.156 14.028 127.19 14.6347 127.19 15.38V22.608C127.19 22.816 127.251 23.0153 127.372 23.206C127.511 23.3793 127.676 23.466 127.866 23.466C128.126 23.466 128.352 23.388 128.542 23.232C128.75 23.0587 128.967 22.8333 129.192 22.556L129.634 23.05C129.322 23.6567 128.889 24.168 128.334 24.584C127.797 24.9827 127.216 25.182 126.592 25.182C125.76 25.182 125.136 24.948 124.72 24.48C124.304 23.9947 124.096 23.3187 124.096 22.452V15.64C124.096 15.3973 124.07 15.1893 124.018 15.016C123.966 14.8427 123.845 14.756 123.654 14.756C123.065 14.756 122.467 15.3887 121.86 16.654C121.254 17.902 120.742 19.3407 120.326 20.97C119.91 22.5993 119.702 23.83 119.702 24.662L116.66 25.338V14.418C116.66 14.158 116.6 13.9413 116.478 13.768C116.357 13.5947 116.184 13.508 115.958 13.508C115.716 13.508 115.473 13.612 115.23 13.82C115.005 14.0107 114.814 14.236 114.658 14.496L114.19 13.976C114.45 13.3693 114.858 12.8493 115.412 12.416C115.967 11.9827 116.565 11.766 117.206 11.766C118.073 11.766 118.706 12.0087 119.104 12.494C119.503 12.962 119.702 13.6207 119.702 14.47V19.488H119.806C120.274 17.564 120.968 15.796 121.886 14.184C122.822 12.572 123.94 11.766 125.24 11.766ZM138.66 11.766C139.665 11.766 140.506 12.026 141.182 12.546C141.858 13.0487 142.196 13.7853 142.196 14.756C142.196 15.536 141.771 16.4113 140.922 17.382C140.09 18.3353 139.093 19.228 137.932 20.06C136.788 20.8747 135.808 21.464 134.994 21.828C135.722 22.9893 136.788 23.57 138.192 23.57C138.972 23.57 139.752 23.3533 140.532 22.92C141.329 22.4693 142.005 21.88 142.56 21.152L143.08 21.776C142.178 22.9027 141.225 23.778 140.22 24.402C139.232 25.0087 138.053 25.312 136.684 25.312C135.574 25.312 134.578 25.0607 133.694 24.558C132.827 24.0553 132.142 23.3707 131.64 22.504C131.154 21.62 130.912 20.632 130.912 19.54C130.912 18.2227 131.267 16.966 131.978 15.77C132.706 14.5567 133.668 13.586 134.864 12.858C136.06 12.13 137.325 11.766 138.66 11.766ZM137.178 13.456C136.519 13.456 135.93 13.6987 135.41 14.184C134.89 14.652 134.482 15.2587 134.188 16.004C133.893 16.7493 133.746 17.5207 133.746 18.318C133.746 19.358 133.971 20.2507 134.422 20.996C135.063 20.632 135.739 20.1293 136.45 19.488C137.178 18.8293 137.784 18.1273 138.27 17.382C138.755 16.6367 138.998 15.9607 138.998 15.354C138.998 14.7473 138.833 14.2793 138.504 13.95C138.192 13.6207 137.75 13.456 137.178 13.456ZM149.04 22.608C149.04 22.8333 149.092 23.0327 149.196 23.206C149.318 23.3793 149.5 23.466 149.742 23.466C149.985 23.466 150.228 23.3707 150.47 23.18C150.73 22.9893 150.938 22.7813 151.094 22.556L151.562 23.05C151.268 23.6393 150.834 24.142 150.262 24.558C149.708 24.974 149.11 25.182 148.468 25.182C146.787 25.182 145.946 24.272 145.946 22.452V2.068L149.04 0.949998V22.608Z" fill="#495950"/>
</svg>
