<svg width="166" height="33" viewBox="0 0 166 33" fill="none" xmlns="http://www.w3.org/2000/svg">
<path d="M14.066 7.398C12.2113 7.64067 10.5213 8.29067 8.996 9.348C7.47067 10.4053 6.27467 11.74 5.408 13.352C4.54133 14.964 4.108 16.68 4.108 18.5C4.108 20.112 4.368 21.36 4.888 22.244C5.408 23.128 6.11867 23.57 7.02 23.57C7.852 23.57 8.64933 22.9113 9.412 21.594C10.192 20.2593 10.816 18.5087 11.284 16.342C11.752 14.1753 11.986 11.922 11.986 9.582L15.262 8.516V22.374C15.262 22.738 15.3487 23.0413 15.522 23.284C15.6953 23.5093 15.9207 23.622 16.198 23.622C16.458 23.622 16.718 23.544 16.978 23.388C17.2553 23.232 17.4893 23.0153 17.68 22.738L18.226 23.258C17.446 24.5407 16.328 25.182 14.872 25.182C13.9533 25.182 13.2427 24.896 12.74 24.324C12.2373 23.7347 11.986 22.868 11.986 21.724V18.188H11.804C11.3013 20.5453 10.5473 22.3133 9.542 23.492C8.53667 24.6707 7.306 25.26 5.85 25.26C4.27267 25.26 3.02467 24.7227 2.106 23.648C1.18733 22.5733 0.728 21.0913 0.728 19.202C0.728 16.9833 1.326 14.912 2.522 12.988C3.73533 11.0467 5.356 9.48667 7.384 8.308C9.42933 7.112 11.6567 6.47067 14.066 6.384V7.398ZM23.1282 22.608C23.1282 22.8333 23.1802 23.0327 23.2842 23.206C23.4056 23.3793 23.5876 23.466 23.8302 23.466C24.0729 23.466 24.3156 23.3707 24.5582 23.18C24.8182 22.9893 25.0262 22.7813 25.1822 22.556L25.6502 23.05C25.3556 23.6393 24.9222 24.142 24.3502 24.558C23.7956 24.974 23.1976 25.182 22.5562 25.182C20.8749 25.182 20.0342 24.272 20.0342 22.452V2.068L23.1282 0.949998V22.608ZM31.304 22.608C31.304 22.8333 31.356 23.0327 31.46 23.206C31.5813 23.3793 31.7633 23.466 32.006 23.466C32.2487 23.466 32.4913 23.3707 32.734 23.18C32.994 22.9893 33.202 22.7813 33.358 22.556L33.826 23.05C33.5313 23.6393 33.098 24.142 32.526 24.558C31.9713 24.974 31.3733 25.182 30.732 25.182C29.0507 25.182 28.21 24.272 28.21 22.452V2.068L31.304 0.949998V22.608Z" fill="#533F00"/>
<path d="M51.3837 6.02C52.5451 6.02 53.4811 6.332 54.1917 6.956C54.9024 7.58 55.2577 8.40333 55.2577 9.426C55.2577 10.258 55.0237 11.0987 54.5557 11.948C54.0877 12.78 53.4551 13.5167 52.6577 14.158C51.8777 14.7993 51.0111 15.25 50.0577 15.51L49.6677 14.834C50.4131 14.4873 51.0111 13.9587 51.4617 13.248C51.9297 12.52 52.1637 11.74 52.1637 10.908C52.1637 9.92 51.8951 9.13133 51.3577 8.542C50.8204 7.93533 50.1184 7.632 49.2517 7.632C48.3331 7.632 47.4664 8.00467 46.6517 8.75C45.8544 9.478 45.2131 10.466 44.7277 11.714C44.2597 12.9447 44.0257 14.2707 44.0257 15.692C44.0257 17.148 44.2511 18.4393 44.7017 19.566C45.1524 20.6753 45.7764 21.542 46.5737 22.166C47.3884 22.79 48.3157 23.102 49.3557 23.102C50.1011 23.102 50.8464 22.92 51.5917 22.556C52.3544 22.1747 53.0911 21.6287 53.8017 20.918L54.5037 21.568C53.6891 22.6253 52.6751 23.5093 51.4617 24.22C50.2657 24.9133 49.0091 25.26 47.6917 25.26C46.2704 25.26 45.0224 24.9307 43.9477 24.272C42.8904 23.6133 42.0757 22.7033 41.5037 21.542C40.9317 20.3633 40.6457 19.02 40.6457 17.512C40.6457 15.3973 41.1224 13.4647 42.0757 11.714C43.0464 9.946 44.3464 8.55933 45.9757 7.554C47.6224 6.53133 49.4251 6.02 51.3837 6.02ZM63.417 12C64.3357 12 65.185 12.182 65.965 12.546C66.7624 12.91 67.3517 13.4733 67.733 14.236L65.211 15.276C64.9684 14.8253 64.6304 14.4527 64.197 14.158C63.7637 13.8633 63.3044 13.716 62.819 13.716C61.6577 13.716 60.739 14.2013 60.063 15.172C59.387 16.1427 59.049 17.356 59.049 18.812C59.049 20.1467 59.2484 21.2473 59.647 22.114C60.0457 22.9633 60.6784 23.388 61.545 23.388C62.7584 23.388 63.5904 22.8247 64.041 21.698C64.4917 20.554 64.717 19.3147 64.717 17.98V16.836L67.759 15.744V22.504C67.759 22.7467 67.811 22.9633 67.915 23.154C68.0364 23.3273 68.2097 23.414 68.435 23.414C68.8684 23.414 69.3104 23.1107 69.761 22.504L70.255 22.998C69.995 23.6047 69.579 24.1247 69.007 24.558C68.4524 24.974 67.8544 25.182 67.213 25.182C66.381 25.182 65.7744 24.9047 65.393 24.35C65.0117 23.778 64.821 23.05 64.821 22.166H64.717C64.301 23.102 63.7464 23.8647 63.053 24.454C62.3597 25.026 61.5537 25.312 60.635 25.312C59.2484 25.312 58.1737 24.8093 57.411 23.804C56.6657 22.7813 56.293 21.4553 56.293 19.826C56.293 18.4393 56.5877 17.148 57.177 15.952C57.7837 14.756 58.6244 13.8027 59.699 13.092C60.791 12.364 62.0304 12 63.417 12ZM75.8428 13.716V22.608C75.8428 22.8507 75.9121 23.0587 76.0508 23.232C76.1895 23.388 76.3715 23.466 76.5968 23.466C77.0128 23.466 77.4808 23.1627 78.0008 22.556L78.4688 23.05C78.1568 23.674 77.7668 24.142 77.2988 24.454C76.8308 24.766 76.3801 24.974 75.9468 25.078C75.5135 25.182 75.2968 25.2167 75.2968 25.182C73.5635 25.182 72.6968 24.272 72.6968 22.452V13.716H70.8508L71.6568 12H72.6968V6.098L75.8428 5.032V12H79.2488L78.4688 13.716H75.8428ZM87.9801 11.766C88.9855 11.766 89.8261 12.026 90.5021 12.546C91.1781 13.0487 91.5161 13.7853 91.5161 14.756C91.5161 15.536 91.0915 16.4113 90.2421 17.382C89.4101 18.3353 88.4135 19.228 87.2521 20.06C86.1081 20.8747 85.1288 21.464 84.3141 21.828C85.0421 22.9893 86.1081 23.57 87.5121 23.57C88.2921 23.57 89.0721 23.3533 89.8521 22.92C90.6495 22.4693 91.3255 21.88 91.8801 21.152L92.4001 21.776C91.4988 22.9027 90.5455 23.778 89.5401 24.402C88.5521 25.0087 87.3735 25.312 86.0041 25.312C84.8948 25.312 83.8981 25.0607 83.0141 24.558C82.1475 24.0553 81.4628 23.3707 80.9601 22.504C80.4748 21.62 80.2321 20.632 80.2321 19.54C80.2321 18.2227 80.5875 16.966 81.2981 15.77C82.0261 14.5567 82.9881 13.586 84.1841 12.858C85.3801 12.13 86.6455 11.766 87.9801 11.766ZM86.4981 13.456C85.8395 13.456 85.2501 13.6987 84.7301 14.184C84.2101 14.652 83.8028 15.2587 83.5081 16.004C83.2135 16.7493 83.0661 17.5207 83.0661 18.318C83.0661 19.358 83.2915 20.2507 83.7421 20.996C84.3835 20.632 85.0595 20.1293 85.7701 19.488C86.4981 18.8293 87.1048 18.1273 87.5901 17.382C88.0755 16.6367 88.3181 15.9607 88.3181 15.354C88.3181 14.7473 88.1535 14.2793 87.8241 13.95C87.5121 13.6207 87.0701 13.456 86.4981 13.456ZM101.299 11.766C102.2 11.766 103.049 11.9827 103.847 12.416C104.661 12.8493 105.268 13.456 105.667 14.236L103.145 15.276C102.885 14.6867 102.538 14.236 102.105 13.924C101.689 13.5947 101.229 13.43 100.727 13.43C99.9813 13.43 99.3226 13.716 98.7506 14.288C98.1786 14.8427 97.7366 15.536 97.4246 16.368C97.13 17.2 96.9826 18.0147 96.9826 18.812C96.9826 20.0427 97.1993 21.1173 97.6326 22.036C98.066 22.9373 98.7593 23.388 99.7126 23.388C100.805 23.388 101.559 22.816 101.975 21.672C102.408 20.528 102.625 19.2973 102.625 17.98V16.836L105.693 15.744V23.726C105.693 25.0607 105.346 26.4213 104.653 27.808C103.959 29.212 103.023 30.3647 101.845 31.266C100.666 32.1847 99.392 32.644 98.0226 32.644C97.052 32.644 96.2546 32.3233 95.6306 31.682L97.8406 29.576C98.3953 30.304 99.0453 30.668 99.7906 30.668C100.952 30.668 101.715 30.226 102.079 29.342C102.46 28.4753 102.651 27.3227 102.651 25.884L102.625 24.064C102.625 23.284 102.694 22.6513 102.833 22.166H102.625C102.122 23.102 101.559 23.8647 100.935 24.454C100.311 25.026 99.5566 25.312 98.6726 25.312C97.2513 25.312 96.1506 24.818 95.3706 23.83C94.5906 22.842 94.2006 21.594 94.2006 20.086C94.2006 18.6647 94.4953 17.3127 95.0846 16.03C95.6913 14.7473 96.532 13.716 97.6066 12.936C98.6986 12.156 99.9293 11.766 101.299 11.766ZM115.355 12.312C114.211 13.1267 113.309 14.054 112.651 15.094C112.009 16.1167 111.689 17.3213 111.689 18.708C111.689 19.4707 111.836 20.242 112.131 21.022C112.425 21.802 112.859 22.452 113.431 22.972C114.003 23.4747 114.687 23.726 115.485 23.726C116.49 23.726 117.296 23.362 117.903 22.634C118.527 21.906 118.839 21.0047 118.839 19.93C118.839 19.1153 118.622 18.292 118.189 17.46C117.773 16.6107 117.209 15.9 116.499 15.328C115.788 14.7387 115.025 14.4093 114.211 14.34C114.575 13.9413 114.965 13.5773 115.381 13.248C115.814 12.9187 116.351 12.52 116.993 12.052C118.241 12.468 119.229 13.2393 119.957 14.366C120.702 15.4927 121.075 16.732 121.075 18.084C121.075 19.28 120.806 20.4413 120.269 21.568C119.749 22.6947 118.986 23.6133 117.981 24.324C116.993 25.0173 115.84 25.364 114.523 25.364C113.431 25.364 112.425 25.1127 111.507 24.61C110.605 24.09 109.886 23.388 109.349 22.504C108.811 21.6027 108.543 20.6147 108.543 19.54C108.543 17.6853 109.123 16.056 110.285 14.652C111.463 13.248 112.989 12.2687 114.861 11.714L115.355 12.312ZM127.175 18.578C127.712 17.3473 128.345 16.3247 129.073 15.51L128.995 15.406C128.405 15.7527 127.695 15.926 126.863 15.926C126.325 15.926 125.831 15.8393 125.381 15.666L123.691 19.28L122.625 18.812L124.367 15.224C124.315 15.172 124.15 15.0247 123.873 14.782C123.595 14.5393 123.422 14.2967 123.353 14.054L125.849 11.246C126.039 11.9567 126.403 12.5807 126.941 13.118C127.495 13.638 128.111 13.898 128.787 13.898C129.844 13.898 130.953 13.5167 132.115 12.754L132.583 13.248C131.577 14.184 130.719 15.2933 130.009 16.576C129.298 17.8587 128.943 19.15 128.943 20.45C128.943 21.2473 129.142 21.9147 129.541 22.452C129.957 22.9893 130.555 23.258 131.335 23.258C131.855 23.258 132.409 23.0673 132.999 22.686L133.389 23.154C132.886 23.7953 132.279 24.3067 131.569 24.688C130.875 25.0693 130.147 25.26 129.385 25.26C128.431 25.26 127.695 24.948 127.175 24.324C126.655 23.6827 126.395 22.8767 126.395 21.906C126.395 20.9007 126.655 19.7913 127.175 18.578ZM138.281 9.27L136.643 9.79L135.577 4.356L139.191 3.134L138.281 9.27ZM139.113 22.608C139.113 22.868 139.173 23.076 139.295 23.232C139.416 23.388 139.581 23.466 139.789 23.466C140.222 23.466 140.664 23.1627 141.115 22.556L141.583 23.05C141.201 23.7433 140.707 24.272 140.101 24.636C139.511 25 138.922 25.182 138.333 25.182C136.755 25.182 135.967 24.272 135.967 22.452V13.092L139.113 12V22.608ZM150.644 11.766C151.65 11.766 152.49 12.026 153.166 12.546C153.842 13.0487 154.18 13.7853 154.18 14.756C154.18 15.536 153.756 16.4113 152.906 17.382C152.074 18.3353 151.078 19.228 149.916 20.06C148.772 20.8747 147.793 21.464 146.978 21.828C147.706 22.9893 148.772 23.57 150.176 23.57C150.956 23.57 151.736 23.3533 152.516 22.92C153.314 22.4693 153.99 21.88 154.544 21.152L155.064 21.776C154.163 22.9027 153.21 23.778 152.204 24.402C151.216 25.0087 150.038 25.312 148.668 25.312C147.559 25.312 146.562 25.0607 145.678 24.558C144.812 24.0553 144.127 23.3707 143.624 22.504C143.139 21.62 142.896 20.632 142.896 19.54C142.896 18.2227 143.252 16.966 143.962 15.77C144.69 14.5567 145.652 13.586 146.848 12.858C148.044 12.13 149.31 11.766 150.644 11.766ZM149.162 13.456C148.504 13.456 147.914 13.6987 147.394 14.184C146.874 14.652 146.467 15.2587 146.172 16.004C145.878 16.7493 145.73 17.5207 145.73 18.318C145.73 19.358 145.956 20.2507 146.406 20.996C147.048 20.632 147.724 20.1293 148.434 19.488C149.162 18.8293 149.769 18.1273 150.254 17.382C150.74 16.6367 150.982 15.9607 150.982 15.354C150.982 14.7473 150.818 14.2793 150.488 13.95C150.176 13.6207 149.734 13.456 149.162 13.456ZM160.869 10.934C162.047 10.934 162.637 11.402 162.637 12.338C162.619 12.754 162.533 13.118 162.377 13.43C162.221 13.742 162.047 14.0193 161.857 14.262C161.683 14.5047 161.562 14.6693 161.493 14.756C161.718 15.016 162.125 15.3887 162.715 15.874C163.252 16.3073 163.685 16.706 164.015 17.07C164.344 17.4167 164.621 17.8673 164.847 18.422C165.072 18.9593 165.185 19.618 165.185 20.398C165.185 21.2993 164.959 22.1313 164.509 22.894C164.075 23.6393 163.477 24.2287 162.715 24.662C161.952 25.0953 161.111 25.312 160.193 25.312C159.517 25.312 158.815 25.1907 158.087 24.948C157.359 24.7053 156.813 24.3673 156.449 23.934L158.347 21.386C158.711 21.9407 159.144 22.4347 159.647 22.868C160.149 23.3013 160.652 23.518 161.155 23.518C161.796 23.518 162.351 23.3013 162.819 22.868C163.287 22.4347 163.521 21.8887 163.521 21.23C163.521 20.6927 163.295 20.164 162.845 19.644C162.394 19.124 161.753 18.4913 160.921 17.746C160.349 17.2433 159.985 16.9053 159.829 16.732L158.061 19.306L157.125 18.682L159.153 15.874C158.806 15.25 158.633 14.5307 158.633 13.716C158.633 12.9187 158.823 12.26 159.205 11.74C159.586 11.2027 160.141 10.934 160.869 10.934ZM160.869 12C160.661 12 160.522 12.0607 160.453 12.182C160.383 12.3033 160.349 12.4767 160.349 12.702C160.349 12.8927 160.383 13.0833 160.453 13.274C160.522 13.4647 160.6 13.6553 160.687 13.846C160.877 13.7073 161.042 13.4993 161.181 13.222C161.319 12.9447 161.389 12.702 161.389 12.494C161.389 12.3553 161.337 12.2427 161.233 12.156C161.146 12.052 161.025 12 160.869 12Z" fill="#495950"/>
</svg>
