<svg width="21" height="20" viewBox="0 0 21 20" fill="none" xmlns="http://www.w3.org/2000/svg">
<path fill-rule="evenodd" clip-rule="evenodd" d="M10.0338 8.59824L16.3417 2.29031C16.7288 1.90323 17.3564 1.90323 17.7435 2.29031C18.1306 2.6774 18.1306 3.30499 17.7435 3.69208L11.4356 10L17.7435 16.3079C18.1306 16.695 18.1306 17.3226 17.7435 17.7097C17.3564 18.0968 16.7288 18.0968 16.3417 17.7097L10.0338 11.4018L3.72589 17.7097C3.3388 18.0968 2.71121 18.0968 2.32413 17.7097C1.93704 17.3226 1.93704 16.695 2.32413 16.3079L8.63205 10L2.32413 3.69208C1.93704 3.30499 1.93704 2.6774 2.32413 2.29031C2.71121 1.90323 3.3388 1.90323 3.72589 2.29031L10.0338 8.59824Z" fill="#C4C4C4"/>
</svg>
