<svg width="9" height="10" viewBox="0 0 9 10" fill="none" xmlns="http://www.w3.org/2000/svg">
<path d="M1.05882 10C0.767647 10 0.518294 9.9022 0.310765 9.70653C0.103588 9.51053 0 9.27503 0 9.00003V2.00003H1.05882V9.00003H6.88235V10H1.05882ZM3.17647 8.00003C2.88529 8.00003 2.63612 7.9022 2.42894 7.70653C2.22141 7.51053 2.11765 7.27503 2.11765 7.00003V1.00003C2.11765 0.725031 2.22141 0.48953 2.42894 0.29353C2.63612 0.0978638 2.88529 3.05176e-05 3.17647 3.05176e-05H7.94118C8.23235 3.05176e-05 8.48171 0.0978638 8.68924 0.29353C8.89641 0.48953 9 0.725031 9 1.00003V7.00003C9 7.27503 8.89641 7.51053 8.68924 7.70653C8.48171 7.9022 8.23235 8.00003 7.94118 8.00003H3.17647ZM3.17647 7.00003H7.94118V1.00003H3.17647V7.00003Z" fill="white"/>
</svg>
