<svg width="24" height="24" viewBox="0 0 24 24" fill="none" xmlns="http://www.w3.org/2000/svg">
<rect y="0.5" width="24" height="23" rx="11.5" fill="#495950"/>
<path d="M8.78891 10.185C8.85424 9.72767 8.98024 9.324 9.16691 8.974C9.35357 8.61933 9.58924 8.323 9.87391 8.085C10.1632 7.847 10.4922 7.66733 10.8609 7.546C11.2342 7.42 11.6356 7.357 12.0649 7.357C12.4896 7.357 12.8816 7.41767 13.2409 7.539C13.6002 7.66033 13.9082 7.833 14.1649 8.057C14.4262 8.281 14.6292 8.55167 14.7739 8.869C14.9186 9.18633 14.9909 9.53867 14.9909 9.926C14.9909 10.2433 14.9489 10.528 14.8649 10.78C14.7856 11.0273 14.6689 11.2443 14.5149 11.431C14.3656 11.6177 14.1836 11.7763 13.9689 11.907C13.7542 12.0377 13.5139 12.145 13.2479 12.229C13.9012 12.397 14.3912 12.6863 14.7179 13.097C15.0492 13.503 15.2149 14.0117 15.2149 14.623C15.2149 15.085 15.1262 15.5003 14.9489 15.869C14.7762 16.2377 14.5382 16.5527 14.2349 16.814C13.9316 17.0707 13.5769 17.269 13.1709 17.409C12.7696 17.5443 12.3379 17.612 11.8759 17.612C11.3439 17.612 10.8889 17.5467 10.5109 17.416C10.1329 17.2807 9.81324 17.0963 9.55191 16.863C9.29057 16.6297 9.07591 16.3543 8.90791 16.037C8.73991 15.715 8.59757 15.3673 8.48091 14.994L9.01991 14.77C9.15991 14.7093 9.29524 14.693 9.42591 14.721C9.56124 14.749 9.65924 14.826 9.71991 14.952C9.78057 15.0827 9.85524 15.239 9.94391 15.421C10.0372 15.603 10.1632 15.778 10.3219 15.946C10.4806 16.114 10.6812 16.2563 10.9239 16.373C11.1712 16.4897 11.4839 16.548 11.8619 16.548C12.2119 16.548 12.5176 16.492 12.7789 16.38C13.0449 16.2633 13.2642 16.114 13.4369 15.932C13.6142 15.75 13.7472 15.547 13.8359 15.323C13.9246 15.099 13.9689 14.8773 13.9689 14.658C13.9689 14.3873 13.9339 14.14 13.8639 13.916C13.7939 13.692 13.6632 13.4983 13.4719 13.335C13.2806 13.1717 13.0169 13.0433 12.6809 12.95C12.3496 12.8567 11.9226 12.81 11.3999 12.81V11.907C11.8292 11.9023 12.1932 11.8557 12.4919 11.767C12.7952 11.6783 13.0402 11.557 13.2269 11.403C13.4182 11.249 13.5559 11.0647 13.6399 10.85C13.7286 10.6353 13.7729 10.3973 13.7729 10.136C13.7729 9.84667 13.7262 9.59467 13.6329 9.38C13.5442 9.16533 13.4206 8.988 13.2619 8.848C13.1032 8.708 12.9142 8.603 12.6949 8.533C12.4802 8.463 12.2469 8.428 11.9949 8.428C11.7429 8.428 11.5072 8.46533 11.2879 8.54C11.0732 8.61467 10.8819 8.71967 10.7139 8.855C10.5506 8.98567 10.4129 9.142 10.3009 9.324C10.1889 9.506 10.1096 9.70667 10.0629 9.926C10.0022 10.0893 9.92524 10.199 9.83191 10.255C9.74324 10.3063 9.61257 10.3203 9.43991 10.297L8.78891 10.185Z" fill="white"/>
</svg>
