<svg width="27" height="26" viewBox="0 0 27 26" fill="none" xmlns="http://www.w3.org/2000/svg">
<path d="M10.621 1.15126C12.2015 -0.381796 14.7815 -0.381796 16.3755 1.13955L17.3616 2.08747C17.7399 2.45156 18.2532 2.66091 18.7935 2.66091H20.1849C22.4273 2.66091 24.2509 4.41501 24.2509 6.57351V7.91412C24.2509 8.43294 24.467 8.92705 24.8453 9.29114L25.8179 10.2274C26.5879 10.9555 27.0066 11.9438 27.0066 12.984C27.0201 14.0242 26.6014 15.0138 25.8449 15.7536L24.8453 16.7159C24.467 17.0799 24.2509 17.5741 24.2509 18.0955V19.4335C24.2509 21.592 22.4273 23.3487 20.1849 23.3487H18.7935C18.2532 23.3487 17.7399 23.5554 17.3616 23.9195L16.389 24.8557C15.5921 25.6242 14.5519 26 13.5118 26C12.4716 26 11.4315 25.6242 10.6345 24.87L9.64837 23.9195C9.27014 23.5554 8.75682 23.3487 8.21648 23.3487H6.82512C4.58273 23.3487 2.7591 21.592 2.7591 19.4335V18.0955C2.7591 17.5741 2.54297 17.0799 2.16474 16.7029L1.19213 15.7796C-0.388344 14.2596 -0.401852 11.7747 1.17863 10.2417L2.16474 9.29114C2.54297 8.92705 2.7591 8.43294 2.7591 7.89982V6.57351C2.7591 4.41501 4.58273 2.66091 6.82512 2.66091H8.21648C8.75682 2.66091 9.27014 2.45156 9.64837 2.08747L10.621 1.15126ZM16.9834 15.2075C16.3215 15.2075 15.7947 15.7159 15.7947 16.3388C15.7947 16.9759 16.3215 17.483 16.9834 17.483C17.6318 17.483 18.1586 16.9759 18.1586 16.3388C18.1586 15.7159 17.6318 15.2075 16.9834 15.2075ZM17.8074 8.84904C17.3481 8.40824 16.6052 8.40824 16.1459 8.84904L9.20259 15.5326C8.74331 15.9747 8.74331 16.7029 9.20259 17.145C9.41873 17.366 9.71591 17.483 10.0266 17.483C10.3508 17.483 10.648 17.366 10.8641 17.145L17.8074 10.4627C18.2667 10.0206 18.2667 9.29114 17.8074 8.84904ZM10.0401 8.52396C9.39171 8.52396 8.85138 9.03108 8.85138 9.65522C8.85138 10.2937 9.39171 10.7995 10.0401 10.7995C10.6885 10.7995 11.2153 10.2937 11.2153 9.65522C11.2153 9.03108 10.6885 8.52396 10.0401 8.52396Z" fill="#533F00"/>
</svg>
