<svg width="15" height="15" viewBox="0 0 15 15" fill="none" xmlns="http://www.w3.org/2000/svg">
<path d="M7.18274 1.74312H4.84586C2.92399 1.74312 1.71899 3.10374 1.71899 5.02999V10.2262C1.71899 12.1525 2.91836 13.5131 4.84586 13.5131H10.3609C12.289 13.5131 13.4884 12.1525 13.4884 10.2262V7.70874M9.47829 2.87656L12.332 5.73031M5.51742 6.82556L10.188 2.15493C10.7699 1.57368 11.713 1.57368 12.2949 2.15493L13.0555 2.91556C13.6374 3.49743 13.6374 4.44118 13.0555 5.02243L8.36242 9.71556C8.10804 9.96993 7.76304 10.1131 7.40304 10.1131H5.06179L5.12054 7.75056C5.12929 7.40306 5.27117 7.07181 5.51742 6.82556Z" stroke="#FEFEFE" stroke-width="1.2" stroke-linecap="round" stroke-linejoin="round"/>
</svg>
