<svg width="18" height="18" viewBox="0 0 18 18" fill="none" xmlns="http://www.w3.org/2000/svg">
<path fill-rule="evenodd" clip-rule="evenodd" d="M13.0654 9.00003C13.0988 10.7716 11.5884 12.2335 9.69039 12.2667C7.79188 12.2341 6.2807 10.772 6.31414 9.00003C6.2807 7.22852 7.79113 5.76657 9.68914 5.73337C11.5877 5.76594 13.0988 7.22807 13.0654 9.00003Z" stroke="#C4C4C4" stroke-linecap="round" stroke-linejoin="round"/>
<path d="M17.2854 12.1302C16.5752 13.8322 15.2654 15.2579 13.5716 16.1727C11.9135 17.0619 9.96901 17.3674 8.09039 17.0337C6.19539 16.6874 4.49059 15.7316 3.27289 14.3329C0.708694 11.3744 0.568689 7.18437 2.93039 4.08255C4.05153 2.60926 5.68795 1.5469 7.55789 1.07838C9.40578 0.624557 11.3668 0.805063 13.0841 1.58705C14.835 2.39137 16.2379 3.73117 17.0591 5.38338L17.1179 5.50005C18.0104 7.40055 17.3329 10.6334 15.1754 10.6334C13.9845 10.6085 13.0403 9.68807 13.0654 8.57655" stroke="#C4C4C4" stroke-linecap="round" stroke-linejoin="round"/>
</svg>
