<svg width="61" height="13" viewBox="0 0 61 13" fill="none" xmlns="http://www.w3.org/2000/svg">
<path d="M6.77188 2.75934C7.08075 1.85839 8.35494 1.85839 8.6638 2.75934L9.02593 3.81568C9.16451 4.21989 9.54459 4.49139 9.97189 4.49139H11.0249C12.0065 4.49139 12.4005 5.75826 11.592 6.31501L10.834 6.83696C10.4646 7.09134 10.3098 7.56058 10.4552 7.98487L10.7662 8.89207C11.0789 9.80403 10.0471 10.5867 9.25312 10.04L8.28499 9.37332C7.94346 9.13814 7.49222 9.13814 7.15069 9.37332L6.18256 10.04C5.38855 10.5867 4.35682 9.80403 4.66946 8.89207L4.98047 7.98487C5.12592 7.56058 4.97107 7.09134 4.60166 6.83696L3.84367 6.31501C3.03516 5.75826 3.42916 4.49139 4.41082 4.49139H5.46379C5.89109 4.49139 6.27118 4.21989 6.40975 3.81568L6.77188 2.75934Z" fill="#FF981F"/>
<path d="M18.3778 2.75934C18.6867 1.85839 19.9609 1.85839 20.2698 2.75934L20.6319 3.81568C20.7705 4.21989 21.1505 4.49139 21.5778 4.49139H22.6308C23.6125 4.49139 24.0065 5.75826 23.198 6.31501L22.44 6.83696C22.0706 7.09134 21.9157 7.56058 22.0612 7.98487L22.3722 8.89207C22.6848 9.80403 21.6531 10.5867 20.8591 10.04L19.8909 9.37332C19.5494 9.13814 19.0982 9.13814 18.7567 9.37332L17.7885 10.04C16.9945 10.5867 15.9628 9.80403 16.2754 8.89207L16.5864 7.98487C16.7319 7.56058 16.577 7.09134 16.2076 6.83696L15.4496 6.31501C14.6411 5.75826 15.0351 4.49139 16.0168 4.49139H17.0697C17.497 4.49139 17.8771 4.21989 18.0157 3.81568L18.3778 2.75934Z" fill="#FF981F"/>
<path d="M29.9839 2.75934C30.2927 1.85839 31.5669 1.85839 31.8758 2.75934L32.2379 3.81568C32.3765 4.21989 32.7566 4.49139 33.1839 4.49139H34.2368C35.2185 4.49139 35.6125 5.75826 34.804 6.31501L34.046 6.83696C33.6766 7.09134 33.5217 7.56058 33.6672 7.98487L33.9782 8.89207C34.2908 9.80403 33.2591 10.5867 32.4651 10.04L31.497 9.37332C31.1554 9.13814 30.7042 9.13814 30.3627 9.37332L29.3945 10.04C28.6005 10.5867 27.5688 9.80403 27.8814 8.89207L28.1924 7.98487C28.3379 7.56058 28.183 7.09134 27.8136 6.83696L27.0556 6.31501C26.2471 5.75826 26.6411 4.49139 27.6228 4.49139H28.6758C29.1031 4.49139 29.4832 4.21989 29.6217 3.81568L29.9839 2.75934Z" fill="#FF981F"/>
<path d="M41.5899 2.75934C41.8988 1.85839 43.173 1.85839 43.4819 2.75934L43.844 3.81568C43.9826 4.21989 44.3626 4.49139 44.7899 4.49139H45.8429C46.8246 4.49139 47.2186 5.75826 46.4101 6.31501L45.6521 6.83696C45.2827 7.09134 45.1278 7.56058 45.2733 7.98487L45.5843 8.89207C45.8969 9.80403 44.8652 10.5867 44.0712 10.04L43.103 9.37332C42.7615 9.13814 42.3103 9.13814 41.9687 9.37332L41.0006 10.04C40.2066 10.5867 39.1749 9.80403 39.4875 8.89207L39.7985 7.98487C39.944 7.56058 39.7891 7.09134 39.4197 6.83696L38.6617 6.31501C37.8532 5.75826 38.2472 4.49139 39.2289 4.49139H40.2818C40.7091 4.49139 41.0892 4.21989 41.2278 3.81568L41.5899 2.75934Z" fill="#FF981F"/>
<path d="M53.4324 2.84041C53.664 2.1647 54.6197 2.1647 54.8513 2.84041L55.2135 3.89676C55.3867 4.40201 55.8618 4.74139 56.3959 4.74139H57.4489C58.1851 4.74139 58.4806 5.69154 57.8742 6.1091L57.1163 6.63105C56.6545 6.94903 56.4609 7.53558 56.6427 8.06594L56.9537 8.97315C57.1882 9.65711 56.4144 10.2441 55.8189 9.83408L54.8508 9.16742C54.4239 8.87344 53.8598 8.87344 53.4329 9.16742L52.4648 9.83408C51.8693 10.2441 51.0955 9.65711 51.33 8.97314L51.641 8.06594C51.8228 7.53558 51.6292 6.94903 51.1675 6.63105L50.4095 6.1091C49.8031 5.69154 50.0986 4.74139 50.8348 4.74139H51.8878C52.4219 4.74139 52.897 4.40201 53.0702 3.89676L53.4324 2.84041Z" stroke="#8F959E" stroke-width="0.5"/>
</svg>
