<svg width="22" height="16" viewBox="0 0 22 16" fill="none" xmlns="http://www.w3.org/2000/svg">
<path d="M3.66634 0.888916L18.333 15.1111M12.833 9.98768C12.3465 10.4099 11.704 10.6667 10.9997 10.6667C9.48089 10.6667 8.24967 9.47279 8.24967 8.00003C8.24967 7.31705 8.51446 6.69403 8.94991 6.22225M17.9735 11.2069C18.4972 10.7647 18.9657 10.3199 19.3691 9.90838C20.4321 8.82387 20.4321 7.17618 19.3691 6.09167C17.5763 4.26255 14.4972 1.7778 10.9997 1.7778C10.1826 1.7778 9.38833 1.91342 8.62798 2.1446M5.95801 3.38081C4.62099 4.20842 3.48084 5.22383 2.63024 6.09167C1.56726 7.17618 1.56726 8.82387 2.63024 9.90838C4.42304 11.7375 7.50212 14.2222 10.9997 14.2222C12.7121 14.2222 14.3242 13.6266 15.7341 12.804" stroke="#C4C4C4" stroke-width="1.5" stroke-linecap="round"/>
</svg>
