<svg width="22" height="22" viewBox="0 0 22 22" fill="none" xmlns="http://www.w3.org/2000/svg">
<path fill-rule="evenodd" clip-rule="evenodd" d="M11 1.5C5.7533 1.5 1.5 5.7533 1.5 11C1.5 16.2467 5.7533 20.5 11 20.5C16.2468 20.5 20.5001 16.2467 20.5001 11C20.5001 5.7533 16.2468 1.5 11 1.5ZM0 11C0 4.92487 4.92487 0 11 0C17.0751 0 22.0001 4.92487 22.0001 11C22.0001 17.0752 17.0751 22 11 22C4.92487 22 0 17.0752 0 11Z" fill="#495950"/>
<path fill-rule="evenodd" clip-rule="evenodd" d="M20.9999 11.6666H0.999962V10.3333H20.9999V11.6666Z" fill="#495950"/>
<path fill-rule="evenodd" clip-rule="evenodd" d="M10.3333 21V0.999977H11.6666V21H10.3333ZM15.7918 11C15.7918 7.37872 14.4895 3.79628 11.9365 1.42758L12.73 0.572327C15.5661 3.20361 16.9584 7.12121 16.9584 11C16.9584 14.8787 15.5661 18.7963 12.73 21.4277L11.9365 20.5723C14.4895 18.2037 15.7918 14.6212 15.7918 11ZM5.16623 11C5.16623 7.12684 6.51318 3.21128 9.26289 0.578627L10.0697 1.42133C7.59708 3.7887 6.3329 7.37314 6.3329 11C6.33291 14.6269 7.59712 18.2113 10.0697 20.5787L9.2629 21.4213C6.51321 18.7887 5.16625 14.8732 5.16623 11Z" fill="#495950"/>
<path fill-rule="evenodd" clip-rule="evenodd" d="M11 5.09662C14.6156 5.09662 18.2923 5.76519 20.7844 7.15741C21.0658 7.31452 21.1664 7.66989 21.0093 7.95116C20.8523 8.23241 20.4968 8.33306 20.2156 8.17594C17.9658 6.91919 14.5134 6.26329 11 6.26329C7.48661 6.26329 4.03427 6.91919 1.78446 8.17594C1.5032 8.33306 1.14783 8.23241 0.990713 7.95116C0.833612 7.66989 0.934246 7.31452 1.21551 7.15741C3.70783 5.76519 7.38446 5.09662 11 5.09662ZM11 16.5833C14.6156 16.5833 18.2923 15.9146 20.7844 14.5225C21.0658 14.3654 21.1664 14.01 21.0093 13.7287C20.8523 13.4475 20.4968 13.3468 20.2156 13.5039C17.9658 14.7607 14.5134 15.4166 11 15.4166C7.48661 15.4166 4.03427 14.7607 1.78446 13.5039C1.5032 13.3468 1.14783 13.4475 0.990713 13.7287C0.833612 14.01 0.934246 14.3654 1.21551 14.5225C3.70783 15.9146 7.38446 16.5833 11 16.5833Z" fill="#495950"/>
</svg>
