<svg width="125" height="33" viewBox="0 0 125 33" fill="none" xmlns="http://www.w3.org/2000/svg">
<path d="M9.764 14.86C11.272 14.86 12.5547 15.224 13.612 15.952C14.6693 16.6627 15.198 17.72 15.198 19.124C15.198 20.736 14.548 22.1313 13.248 23.31C11.9653 24.4887 10.3967 25.3813 8.542 25.988C6.70467 26.612 4.98 26.95 3.368 27.002L3.134 26.066C5.35267 25.6153 7.31133 24.844 9.01 23.752C10.726 22.66 11.584 21.1867 11.584 19.332C11.584 18.656 11.3847 18.058 10.986 17.538C10.6047 17.0007 10.102 16.5933 9.478 16.316C8.87133 16.0213 8.23867 15.874 7.58 15.874C6.436 15.874 5.266 16.108 4.07 16.576L4.018 16.446V24.298L0.768 25.364V15.796C0.768 14.0453 1.14933 12.442 1.912 10.986C2.67467 9.53 3.74067 8.386 5.11 7.554C6.49667 6.70467 8.05667 6.28 9.79 6.28C10.674 6.28 11.4193 6.49667 12.026 6.93C12.6327 7.36333 12.936 7.98733 12.936 8.802C12.936 9.894 12.3727 11.012 11.246 12.156C10.1193 13.2827 8.86267 14.236 7.476 15.016L7.528 15.146C8.412 14.9553 9.15733 14.86 9.764 14.86ZM4.018 15.796C5.474 15.1027 6.73067 14.2447 7.788 13.222C8.86267 12.1993 9.4 11.064 9.4 9.816C9.4 9.17467 9.23533 8.66333 8.906 8.282C8.57667 7.88333 8.126 7.684 7.554 7.684C6.68733 7.684 5.98533 8.05667 5.448 8.802C4.928 9.53 4.55533 10.4053 4.33 11.428C4.122 12.4507 4.018 13.43 4.018 14.366V15.796ZM20.8823 18.552H20.9863C21.3676 16.8707 21.9916 15.3193 22.8583 13.898C23.7249 12.4767 24.7909 11.766 26.0563 11.766C26.6456 11.766 27.0789 11.948 27.3563 12.312C27.6509 12.676 27.8329 13.1093 27.9023 13.612C27.9716 14.0973 28.0063 14.6953 28.0063 15.406V22.608C28.0063 22.816 28.0669 23.0153 28.1883 23.206C28.3269 23.3793 28.5176 23.466 28.7603 23.466C29.1763 23.466 29.6096 23.1627 30.0603 22.556L30.5023 23.05C30.2076 23.6393 29.7829 24.142 29.2283 24.558C28.6736 24.974 28.0669 25.182 27.4083 25.182C25.7616 25.182 24.9383 24.272 24.9383 22.452V15.64C24.9383 15.4147 24.8949 15.2153 24.8083 15.042C24.7389 14.8513 24.6089 14.756 24.4183 14.756C23.6903 14.756 23.0576 15.3627 22.5202 16.576C22.0003 17.7893 21.5929 19.1933 21.2983 20.788C21.0209 22.3827 20.8823 23.674 20.8823 24.662L17.7623 25.338V2.068L20.8823 0.975999V18.552ZM39.1085 12C40.0271 12 40.8765 12.182 41.6565 12.546C42.4538 12.91 43.0431 13.4733 43.4245 14.236L40.9025 15.276C40.6598 14.8253 40.3218 14.4527 39.8885 14.158C39.4551 13.8633 38.9958 13.716 38.5105 13.716C37.3491 13.716 36.4305 14.2013 35.7545 15.172C35.0785 16.1427 34.7405 17.356 34.7405 18.812C34.7405 20.1467 34.9398 21.2473 35.3385 22.114C35.7371 22.9633 36.3698 23.388 37.2365 23.388C38.4498 23.388 39.2818 22.8247 39.7325 21.698C40.1831 20.554 40.4085 19.3147 40.4085 17.98V16.836L43.4505 15.744V22.504C43.4505 22.7467 43.5025 22.9633 43.6065 23.154C43.7278 23.3273 43.9011 23.414 44.1265 23.414C44.5598 23.414 45.0018 23.1107 45.4525 22.504L45.9465 22.998C45.6865 23.6047 45.2705 24.1247 44.6985 24.558C44.1438 24.974 43.5458 25.182 42.9045 25.182C42.0725 25.182 41.4658 24.9047 41.0845 24.35C40.7031 23.778 40.5125 23.05 40.5125 22.166H40.4085C39.9925 23.102 39.4378 23.8647 38.7445 24.454C38.0511 25.026 37.2451 25.312 36.3265 25.312C34.9398 25.312 33.8651 24.8093 33.1025 23.804C32.3571 22.7813 31.9845 21.4553 31.9845 19.826C31.9845 18.4393 32.2791 17.148 32.8685 15.952C33.4751 14.756 34.3158 13.8027 35.3905 13.092C36.4825 12.364 37.7218 12 39.1085 12ZM51.1962 18.578C51.7336 17.3473 52.3662 16.3247 53.0942 15.51L53.0162 15.406C52.4269 15.7527 51.7162 15.926 50.8842 15.926C50.3469 15.926 49.8529 15.8393 49.4022 15.666L47.7122 19.28L46.6462 18.812L48.3882 15.224C48.3362 15.172 48.1716 15.0247 47.8942 14.782C47.6169 14.5393 47.4436 14.2967 47.3742 14.054L49.8702 11.246C50.0609 11.9567 50.4249 12.5807 50.9622 13.118C51.5169 13.638 52.1322 13.898 52.8082 13.898C53.8656 13.898 54.9749 13.5167 56.1362 12.754L56.6042 13.248C55.5989 14.184 54.7409 15.2933 54.0302 16.576C53.3196 17.8587 52.9642 19.15 52.9642 20.45C52.9642 21.2473 53.1636 21.9147 53.5622 22.452C53.9782 22.9893 54.5762 23.258 55.3562 23.258C55.8762 23.258 56.4309 23.0673 57.0202 22.686L57.4102 23.154C56.9076 23.7953 56.3009 24.3067 55.5902 24.688C54.8969 25.0693 54.1689 25.26 53.4062 25.26C52.4529 25.26 51.7162 24.948 51.1962 24.324C50.6762 23.6827 50.4162 22.8767 50.4162 21.906C50.4162 20.9007 50.6762 19.7913 51.1962 18.578ZM66.1241 12C67.0427 12 67.8921 12.182 68.6721 12.546C69.4694 12.91 70.0587 13.4733 70.4401 14.236L67.9181 15.276C67.6754 14.8253 67.3374 14.4527 66.9041 14.158C66.4707 13.8633 66.0114 13.716 65.5261 13.716C64.3647 13.716 63.4461 14.2013 62.7701 15.172C62.0941 16.1427 61.7561 17.356 61.7561 18.812C61.7561 20.1467 61.9554 21.2473 62.3541 22.114C62.7527 22.9633 63.3854 23.388 64.2521 23.388C65.4654 23.388 66.2974 22.8247 66.7481 21.698C67.1987 20.554 67.4241 19.3147 67.4241 17.98V16.836L70.4661 15.744V22.504C70.4661 22.7467 70.5181 22.9633 70.6221 23.154C70.7434 23.3273 70.9167 23.414 71.1421 23.414C71.5754 23.414 72.0174 23.1107 72.4681 22.504L72.9621 22.998C72.7021 23.6047 72.2861 24.1247 71.7141 24.558C71.1594 24.974 70.5614 25.182 69.9201 25.182C69.0881 25.182 68.4814 24.9047 68.1001 24.35C67.7187 23.778 67.5281 23.05 67.5281 22.166H67.4241C67.0081 23.102 66.4534 23.8647 65.7601 24.454C65.0667 25.026 64.2607 25.312 63.3421 25.312C61.9554 25.312 60.8807 24.8093 60.1181 23.804C59.3727 22.7813 59.0001 21.4553 59.0001 19.826C59.0001 18.4393 59.2947 17.148 59.8841 15.952C60.4907 14.756 61.3314 13.8027 62.4061 13.092C63.4981 12.364 64.7374 12 66.1241 12ZM78.5498 13.716V22.608C78.5498 22.8507 78.6192 23.0587 78.7578 23.232C78.8965 23.388 79.0785 23.466 79.3038 23.466C79.7198 23.466 80.1878 23.1627 80.7078 22.556L81.1758 23.05C80.8638 23.674 80.4738 24.142 80.0058 24.454C79.5378 24.766 79.0872 24.974 78.6538 25.078C78.2205 25.182 78.0038 25.2167 78.0038 25.182C76.2705 25.182 75.4038 24.272 75.4038 22.452V13.716H73.5578L74.3638 12H75.4038V6.098L78.5498 5.032V12H81.9558L81.1758 13.716H78.5498Z" fill="#533F00"/>
<path d="M90.3256 9.14C89.9963 9.57333 89.7536 9.98067 89.5976 10.362C89.4416 10.726 89.3636 11.1593 89.3636 11.662V15.354H91.1056C92.6136 15.354 93.8356 14.9987 94.7716 14.288L95.2136 14.756C94.2256 16.2813 92.6309 17.044 90.4296 17.044H89.3636V21.984C89.3636 23.1973 89.0863 24.2287 88.5316 25.078C87.9943 25.9447 87.1623 26.7333 86.0356 27.444L85.4896 26.82C85.9229 26.352 86.1396 25.5113 86.1396 24.298V17.044H83.7736L85.0736 15.354H86.1396V13.17C86.1396 11.922 86.9543 10.5787 88.5836 9.14L85.0216 9.114C83.9123 9.114 82.9069 9.64267 82.0056 10.7L81.4596 10.154C82.2569 9.07933 83.0803 8.23 83.9296 7.606C84.7963 6.982 85.7843 6.67 86.8936 6.67H93.1076C93.9396 6.67 94.7803 6.60067 95.6296 6.462C96.4789 6.306 97.1289 6.03733 97.5796 5.656L97.9696 6.124C97.4149 6.97333 96.6523 7.69267 95.6816 8.282C94.7109 8.854 93.6449 9.14 92.4836 9.14H90.3256ZM108.766 23.57C108.766 25.13 108.402 26.6207 107.674 28.042C106.946 29.4633 105.984 30.5987 104.788 31.448C103.592 32.3147 102.344 32.748 101.044 32.748C100.576 32.748 100.134 32.6787 99.7181 32.54C99.3021 32.4013 98.8688 32.176 98.4181 31.864L100.342 29.446C100.741 29.8273 101.183 30.122 101.668 30.33C102.153 30.5553 102.587 30.668 102.968 30.668C103.8 30.668 104.459 30.0613 104.944 28.848C105.429 27.652 105.672 26.0053 105.672 23.908C105.672 20.84 105.707 18.578 105.776 17.122H105.62C104.407 22.582 102.665 25.312 100.394 25.312C99.8741 25.312 99.4668 25.208 99.1721 25C98.8948 24.792 98.6954 24.4367 98.5741 23.934C98.4701 23.414 98.4181 22.6773 98.4181 21.724V14.496C98.4181 14.2013 98.3574 13.976 98.2361 13.82C98.1148 13.6467 97.9501 13.56 97.7421 13.56C97.5341 13.56 97.3088 13.638 97.0661 13.794C96.8408 13.95 96.6241 14.184 96.4161 14.496L95.9481 14.002C96.3468 13.1873 96.7714 12.6153 97.2221 12.286C97.6901 11.9393 98.2881 11.766 99.0161 11.766C99.8134 11.766 100.429 12.0087 100.862 12.494C101.295 12.962 101.512 13.6293 101.512 14.496V21.464C101.512 21.7587 101.555 21.984 101.642 22.14C101.729 22.296 101.841 22.374 101.98 22.374C102.396 22.374 102.881 21.828 103.436 20.736C104.008 19.644 104.493 18.3353 104.892 16.81C105.308 15.2847 105.516 13.9327 105.516 12.754L108.766 11.662V23.57ZM124.862 23.102C124.498 23.6567 124.03 24.1507 123.458 24.584C122.886 25 122.331 25.208 121.794 25.208C121.118 25.208 120.451 24.8267 119.792 24.064C119.133 23.3013 118.431 22.2353 117.686 20.866C117.235 22.2353 116.689 23.3013 116.048 24.064C115.424 24.8267 114.557 25.208 113.448 25.208C112.564 25.208 111.827 24.9393 111.238 24.402L112.538 21.49C112.763 21.698 113.032 21.88 113.344 22.036C113.673 22.1747 113.977 22.244 114.254 22.244C114.913 22.244 115.459 22.0187 115.892 21.568C116.325 21.1 116.707 20.45 117.036 19.618L116.724 19.02C115.805 17.2867 115.06 16.0127 114.488 15.198C113.916 14.3833 113.335 13.976 112.746 13.976C112.399 13.976 112.061 14.1147 111.732 14.392L111.316 13.872C111.697 13.3 112.174 12.806 112.746 12.39C113.318 11.974 113.89 11.766 114.462 11.766C115.103 11.766 115.736 12.1213 116.36 12.832C116.984 13.5253 117.634 14.496 118.31 15.744C118.761 14.4267 119.298 13.404 119.922 12.676C120.563 11.9307 121.43 11.558 122.522 11.558C123.371 11.558 124.082 11.818 124.654 12.338L123.354 15.25C123.111 15.042 122.834 14.8687 122.522 14.73C122.227 14.5913 121.941 14.522 121.664 14.522C121.023 14.522 120.485 14.7387 120.052 15.172C119.636 15.588 119.272 16.186 118.96 16.966L119.35 17.746C119.991 18.9593 120.503 19.904 120.884 20.58C121.283 21.256 121.699 21.828 122.132 22.296C122.583 22.764 123.025 22.998 123.458 22.998C123.631 22.998 123.787 22.9633 123.926 22.894C124.065 22.8247 124.238 22.7207 124.446 22.582L124.862 23.102Z" fill="#495950"/>
</svg>
