<svg width="11" height="19" viewBox="0 0 11 19" fill="none" xmlns="http://www.w3.org/2000/svg">
<g clip-path="url(#clip0_161_3248)">
<path d="M0 8.79054C0 9.88763 0.206266 10.8615 0.618799 11.7123C1.03133 12.5631 1.60657 13.2446 2.34452 13.7568C3.08247 14.2689 3.94084 14.5697 4.91964 14.6593V16.6156H2.06778C1.9038 16.6156 1.76543 16.6771 1.65269 16.8003C1.53995 16.9234 1.48358 17.0746 1.48358 17.2537C1.48358 17.4272 1.53995 17.5755 1.65269 17.6986C1.76543 17.8218 1.9038 17.8834 2.06778 17.8834H8.93226C9.09624 17.8834 9.2346 17.8218 9.34732 17.6986C9.46003 17.5755 9.51639 17.4272 9.51639 17.2537C9.51639 17.0746 9.46003 16.9234 9.34732 16.8003C9.2346 16.6771 9.09624 16.6156 8.93226 16.6156H6.08037V14.6593C7.05917 14.5697 7.91755 14.2689 8.6555 13.7568C9.39342 13.2446 9.96866 12.5631 10.3812 11.7123C10.7937 10.8615 11 9.88763 11 8.79054V7.08617C11 6.91266 10.9436 6.76433 10.8309 6.64119C10.7182 6.51805 10.5823 6.45648 10.4235 6.45648C10.2595 6.45648 10.1211 6.51805 10.0084 6.64119C9.89564 6.76433 9.83928 6.91266 9.83928 7.08617V8.74016C9.83928 9.69172 9.65992 10.5257 9.30119 11.2422C8.94246 11.9586 8.43897 12.5141 7.79071 12.9087C7.14245 13.3033 6.38016 13.5006 5.50385 13.5006C4.62754 13.5006 3.86397 13.3033 3.21314 12.9087C2.56231 12.5141 2.05754 11.9586 1.69881 11.2422C1.34009 10.5257 1.16073 9.69172 1.16073 8.74016V7.08617C1.16073 6.91266 1.10436 6.76433 0.991618 6.64119C0.878873 6.51805 0.740507 6.45648 0.57652 6.45648C0.417657 6.45648 0.281855 6.51805 0.169113 6.64119C0.0563709 6.76433 0 6.91266 0 7.08617V8.79054ZM5.50385 11.6955C6.01118 11.6955 6.45831 11.5668 6.84522 11.3093C7.23213 11.0519 7.53192 10.695 7.74459 10.2389C7.95724 9.78268 8.06357 9.25515 8.06357 8.65625V3.03933C8.06357 2.44042 7.95724 1.91287 7.74459 1.4567C7.53192 1.00052 7.23213 0.643689 6.84522 0.386213C6.45831 0.128738 6.01118 0 5.50385 0C4.99138 0 4.54298 0.128738 4.15863 0.386213C3.77428 0.643689 3.47449 1.00052 3.25926 1.4567C3.04403 1.91287 2.93641 2.44042 2.93641 3.03933V8.65625C2.93641 9.25515 3.04403 9.78268 3.25926 10.2389C3.47449 10.695 3.77428 11.0519 4.15863 11.3093C4.54298 11.5668 4.99138 11.6955 5.50385 11.6955Z" fill="#939393"/>
</g>
<defs>
<clipPath id="clip0_161_3248">
<rect width="11" height="19" fill="white"/>
</clipPath>
</defs>
</svg>
