<svg width="21" height="20" viewBox="0 0 21 20" fill="none" xmlns="http://www.w3.org/2000/svg">
<path d="M17.1667 1C18.2713 1 19.1667 1.88316 19.1667 2.9726L19.1667 6.33992C19.1667 7.42936 18.2713 8.31252 17.1667 8.31252H14.1667C13.0621 8.31252 12.1667 7.42936 12.1667 6.33992L12.1667 2.9726C12.1667 1.88316 13.0621 1 14.1667 1L17.1667 1Z" stroke="#555555" stroke-width="2" stroke-linecap="round" stroke-linejoin="round"/>
<path d="M3.16669 1C2.06212 1 1.16669 1.88316 1.16669 2.9726L1.1667 6.33992C1.1667 7.42936 2.06213 8.31252 3.1667 8.31252H6.16669C7.27126 8.31252 8.16669 7.42936 8.16669 6.33992L8.16668 2.9726C8.16668 1.88316 7.27125 1 6.16669 1L3.16669 1Z" stroke="#555555" stroke-width="2" stroke-linecap="round" stroke-linejoin="round"/>
<path d="M17.1667 11.6875C18.2713 11.6875 19.1667 12.5707 19.1667 13.6601V17.0274C19.1667 18.1168 18.2713 19 17.1667 19H14.1667C13.0621 19 12.1667 18.1168 12.1667 17.0274L12.1667 13.6601C12.1667 12.5707 13.0621 11.6875 14.1667 11.6875H17.1667Z" stroke="#555555" stroke-width="2" stroke-linecap="round" stroke-linejoin="round"/>
<path d="M3.16669 11.6875C2.06213 11.6875 1.1667 12.5707 1.1667 13.6601L1.1667 17.0274C1.1667 18.1168 2.06213 19 3.1667 19H6.1667C7.27127 19 8.1667 18.1168 8.1667 17.0274L8.16669 13.6601C8.16669 12.5707 7.27126 11.6875 6.16669 11.6875H3.16669Z" stroke="#555555" stroke-width="2" stroke-linecap="round" stroke-linejoin="round"/>
</svg>
