<svg width="38" height="38" viewBox="0 0 38 38" fill="none" xmlns="http://www.w3.org/2000/svg">
<g clip-path="url(#clip0_437_2737)">
<path d="M19 5.05087L30.0833 9.97504V17.4167C30.0833 24.5734 25.365 31.1759 19 33.1392C12.635 31.1759 7.91667 24.5734 7.91667 17.4167V9.97504L19 5.05087ZM19 1.58337L4.75 7.91671V17.4167C4.75 26.2042 10.83 34.4217 19 36.4167C27.17 34.4217 33.25 26.2042 33.25 17.4167V7.91671L19 1.58337ZM17.4167 11.0834H20.5833V14.25H17.4167V11.0834ZM17.4167 17.4167H20.5833V26.9167H17.4167V17.4167Z" fill="url(#paint0_linear_437_2737)"/>
</g>
<defs>
<linearGradient id="paint0_linear_437_2737" x1="19" y1="1.58337" x2="19" y2="36.4167" gradientUnits="userSpaceOnUse">
<stop stop-color="#533F00"/>
<stop offset="1" stop-color="#FF981F"/>
</linearGradient>
<clipPath id="clip0_437_2737">
<rect width="38" height="38" fill="white"/>
</clipPath>
</defs>
</svg>
