<svg width="25" height="26" viewBox="0 0 25 26" fill="none" xmlns="http://www.w3.org/2000/svg">
<path d="M2.5 2.61743C1.94772 2.61743 1.5 3.06515 1.5 3.61743C1.5 4.16972 1.94772 4.61743 2.5 4.61743V2.61743ZM4.88806 3.61743L5.85329 3.35602C5.73523 2.92011 5.33967 2.61743 4.88806 2.61743V3.61743ZM8.76866 17.9458L7.80343 18.2072C7.9337 18.6882 8.39822 18.9999 8.89269 18.9381L8.76866 17.9458ZM20.709 16.4533L20.833 17.4455C21.2577 17.3924 21.6015 17.075 21.6882 16.6559L20.709 16.4533ZM22.5 7.79654L23.4793 7.99914C23.5402 7.70463 23.4653 7.39833 23.2754 7.16511C23.0855 6.9319 22.8007 6.79654 22.5 6.79654V7.79654ZM6.0199 7.79654L5.05467 8.05795L5.05467 8.05795L6.0199 7.79654ZM2.5 4.61743H4.88806V2.61743H2.5V4.61743ZM8.89269 18.9381L20.833 17.4455L20.5849 15.461L8.64462 16.9535L8.89269 18.9381ZM21.6882 16.6559L23.4793 7.99914L21.5207 7.59393L19.7297 16.2506L21.6882 16.6559ZM3.92283 3.87885L5.05467 8.05795L6.98513 7.53512L5.85329 3.35602L3.92283 3.87885ZM5.05467 8.05795L7.80343 18.2072L9.73388 17.6844L6.98513 7.53512L5.05467 8.05795ZM22.5 6.79654H6.0199V8.79654H22.5V6.79654ZM11.5 21.8542C11.5 22.1648 11.2482 22.4167 10.9375 22.4167V24.4167C12.3527 24.4167 13.5 23.2694 13.5 21.8542H11.5ZM10.9375 22.4167C10.6268 22.4167 10.375 22.1648 10.375 21.8542H8.375C8.375 23.2694 9.52227 24.4167 10.9375 24.4167V22.4167ZM10.375 21.8542C10.375 21.5435 10.6268 21.2917 10.9375 21.2917V19.2917C9.52227 19.2917 8.375 20.4389 8.375 21.8542H10.375ZM10.9375 21.2917C11.2482 21.2917 11.5 21.5435 11.5 21.8542H13.5C13.5 20.4389 12.3527 19.2917 10.9375 19.2917V21.2917ZM19.8333 21.8542C19.8333 22.1648 19.5815 22.4167 19.2708 22.4167V24.4167C20.6861 24.4167 21.8333 23.2694 21.8333 21.8542H19.8333ZM19.2708 22.4167C18.9602 22.4167 18.7083 22.1648 18.7083 21.8542H16.7083C16.7083 23.2694 17.8556 24.4167 19.2708 24.4167V22.4167ZM18.7083 21.8542C18.7083 21.5435 18.9602 21.2917 19.2708 21.2917V19.2917C17.8556 19.2917 16.7083 20.4389 16.7083 21.8542H18.7083ZM19.2708 21.2917C19.5815 21.2917 19.8333 21.5435 19.8333 21.8542H21.8333C21.8333 20.4389 20.6861 19.2917 19.2708 19.2917V21.2917Z" fill="#495950"/>
</svg>
