<svg width="351" height="12" viewBox="0 0 351 12" fill="none" xmlns="http://www.w3.org/2000/svg">
<g clip-path="url(#clip0_451_4439)">
<circle cx="6.89844" cy="6" r="6" fill="#495950"/>
<path d="M6.22476 7.09657L9.40867 3.91266L9.8985 4.40249L6.22476 8.07622L4.02051 5.872L4.51034 5.38217L6.22476 7.09657Z" fill="white" stroke="white" stroke-width="0.5"/>
</g>
<line x1="18.4238" y1="5.5" x2="78.4238" y2="5.5" stroke="#495950"/>
<g clip-path="url(#clip1_451_4439)">
<circle cx="89.9492" cy="6" r="6" fill="#495950"/>
<path d="M89.2755 7.09657L92.4595 3.91266L92.9493 4.40249L89.2755 8.07622L87.0713 5.872L87.5611 5.38217L89.2755 7.09657Z" fill="white" stroke="white" stroke-width="0.5"/>
</g>
<line x1="101.475" y1="5.5" x2="161.475" y2="5.5" stroke="#495950"/>
<g clip-path="url(#clip2_451_4439)">
<circle cx="173" cy="6" r="6" fill="#495950"/>
<path d="M172.326 7.09657L175.51 3.91266L176 4.40249L172.326 8.07622L170.122 5.872L170.612 5.38217L172.326 7.09657Z" fill="white" stroke="white" stroke-width="0.5"/>
</g>
<line x1="184.525" y1="5.5" x2="244.525" y2="5.5" stroke="#495950" stroke-dasharray="4 4"/>
<g clip-path="url(#clip3_451_4439)">
<circle cx="256.051" cy="6" r="5.5" stroke="#495950"/>
</g>
<line x1="267.576" y1="5.5" x2="332.576" y2="5.5" stroke="#EDEDED"/>
<g clip-path="url(#clip4_451_4439)">
<circle cx="344.102" cy="6" r="5.5" stroke="#EDEDED"/>
</g>
<defs>
<clipPath id="clip0_451_4439">
<rect width="12" height="12" fill="white" transform="translate(0.898438)"/>
</clipPath>
<clipPath id="clip1_451_4439">
<rect width="12" height="12" fill="white" transform="translate(83.9492)"/>
</clipPath>
<clipPath id="clip2_451_4439">
<rect width="12" height="12" fill="white" transform="translate(167)"/>
</clipPath>
<clipPath id="clip3_451_4439">
<rect width="12" height="12" fill="white" transform="translate(250.051)"/>
</clipPath>
<clipPath id="clip4_451_4439">
<rect width="12" height="12" fill="white" transform="translate(338.102)"/>
</clipPath>
</defs>
</svg>
