<svg width="20" height="23" viewBox="0 0 20 23" fill="none" xmlns="http://www.w3.org/2000/svg">
<path fill-rule="evenodd" clip-rule="evenodd" d="M1.68652 9.46259C1.70229 4.78077 5.47822 0.998304 10.1203 1.01421C14.7624 1.03012 18.5127 4.83837 18.4969 9.52019V9.61619C18.4398 12.6595 16.755 15.4725 14.6894 17.671C13.508 18.9082 12.1888 20.0035 10.7581 20.9351C10.3755 21.2689 9.80799 21.2689 9.4254 20.9351C7.29243 19.5349 5.42039 17.7671 3.89491 15.7125C2.53528 13.9208 1.76333 11.7462 1.68652 9.49139L1.68652 9.46259Z" stroke="#495950" stroke-width="2" stroke-linecap="round" stroke-linejoin="round"/>
<path fill-rule="evenodd" clip-rule="evenodd" d="M10.092 11.9872C11.3852 11.9872 12.4335 10.9299 12.4335 9.6256C12.4335 8.32134 11.3852 7.26404 10.092 7.26404C8.79882 7.26404 7.75049 8.32134 7.75049 9.6256C7.75049 10.9299 8.79882 11.9872 10.092 11.9872Z" stroke="#495950" stroke-width="2" stroke-linecap="round" stroke-linejoin="round"/>
</svg>
