<svg width="21" height="21" viewBox="0 0 21 21" fill="none" xmlns="http://www.w3.org/2000/svg">
<path d="M10.0918 0.854004C8.11399 0.854004 6.18059 1.44049 4.5361 2.53931C2.89161 3.63812 1.60988 5.19991 0.853006 7.02717C0.0961297 8.85443 -0.101904 10.8651 0.283949 12.8049C0.669801 14.7447 1.62221 16.5265 3.02073 17.9251C4.41926 19.3236 6.20109 20.276 8.1409 20.6619C10.0807 21.0477 12.0914 20.8497 13.9186 20.0928C15.7459 19.3359 17.3077 18.0542 18.4065 16.4097C19.5053 14.7652 20.0918 12.8318 20.0918 10.854C20.0918 9.54078 19.8331 8.24043 19.3306 7.02717C18.8281 5.81391 18.0915 4.71152 17.1629 3.78294C16.2343 2.85435 15.1319 2.11776 13.9186 1.61521C12.7054 1.11266 11.405 0.854004 10.0918 0.854004ZM10.0918 18.854C8.50955 18.854 6.96283 18.3848 5.64724 17.5058C4.33165 16.6267 3.30627 15.3773 2.70077 13.9155C2.09526 12.4537 1.93684 10.8451 2.24552 9.29328C2.5542 7.74143 3.31613 6.31597 4.43495 5.19715C5.55377 4.07833 6.97923 3.3164 8.53108 3.00772C10.0829 2.69904 11.6915 2.85747 13.1533 3.46297C14.6151 4.06847 15.8645 5.09385 16.7436 6.40944C17.6226 7.72504 18.0918 9.27175 18.0918 10.854C18.0918 12.9757 17.2489 15.0106 15.7487 16.5109C14.2484 18.0112 12.2135 18.854 10.0918 18.854Z" fill="#495950"/>
<path d="M10.3096 4.85407C9.38131 4.85407 8.49107 5.22282 7.8347 5.8792C7.17832 6.53557 6.80957 7.42581 6.80957 8.35407C6.80957 8.61929 6.91493 8.87364 7.10246 9.06118C7.29 9.24871 7.54435 9.35407 7.80957 9.35407C8.07479 9.35407 8.32914 9.24871 8.51668 9.06118C8.70421 8.87364 8.80957 8.61929 8.80957 8.35407C8.80957 8.0574 8.89754 7.76739 9.06237 7.52072C9.22719 7.27404 9.46146 7.08178 9.73555 6.96825C10.0096 6.85472 10.3112 6.82502 10.6022 6.88289C10.8932 6.94077 11.1605 7.08363 11.3702 7.29341C11.58 7.50319 11.7229 7.77046 11.7807 8.06144C11.8386 8.35241 11.8089 8.65401 11.6954 8.9281C11.5819 9.20219 11.3896 9.43645 11.1429 9.60128C10.8963 9.7661 10.6062 9.85407 10.3096 9.85407C10.0444 9.85407 9.79 9.95943 9.60246 10.147C9.41493 10.3345 9.30957 10.5889 9.30957 10.8541V12.8541C9.30957 13.1193 9.41493 13.3736 9.60246 13.5612C9.79 13.7487 10.0444 13.8541 10.3096 13.8541C10.5748 13.8541 10.8291 13.7487 11.0167 13.5612C11.2042 13.3736 11.3096 13.1193 11.3096 12.8541V11.6941C12.1177 11.4581 12.8132 10.9379 13.2681 10.2295C13.7229 9.52109 13.9063 8.67214 13.7845 7.83914C13.6627 7.00613 13.244 6.24523 12.6054 5.69666C11.9668 5.1481 11.1514 4.84885 10.3096 4.85407Z" fill="#495950"/>
<path d="M10.3096 16.854C10.8619 16.854 11.3096 16.4063 11.3096 15.854C11.3096 15.3017 10.8619 14.854 10.3096 14.854C9.75729 14.854 9.30957 15.3017 9.30957 15.854C9.30957 16.4063 9.75729 16.854 10.3096 16.854Z" fill="#495950"/>
</svg>
