<svg width="20" height="20" viewBox="0 0 20 20" fill="none" xmlns="http://www.w3.org/2000/svg">
<path fill-rule="evenodd" clip-rule="evenodd" d="M10 1.36363C5.23028 1.36363 1.36363 5.23028 1.36363 10C1.36363 14.7697 5.23028 18.6364 10 18.6364C14.7698 18.6364 18.6365 14.7697 18.6365 10C18.6365 5.23028 14.7698 1.36363 10 1.36363ZM0 10C0 4.47715 4.47715 0 10 0C15.5228 0 20.0001 4.47715 20.0001 10C20.0001 15.5229 15.5228 20 10 20C4.47715 20 0 15.5229 0 10Z" fill="#495950"/>
<path fill-rule="evenodd" clip-rule="evenodd" d="M19.091 10.606H0.90918V9.39388H19.091V10.606Z" fill="#495950"/>
<path fill-rule="evenodd" clip-rule="evenodd" d="M9.39384 19.0909V0.909052H10.606V19.0909H9.39384ZM14.3561 9.99995C14.3561 6.70791 13.1722 3.45115 10.8513 1.29778L11.5727 0.520279C14.151 2.91236 15.4167 6.4738 15.4167 9.99995C15.4167 13.5261 14.151 17.0876 11.5727 19.4797L10.8513 18.7021C13.1722 16.5488 14.3561 13.292 14.3561 9.99995ZM4.69653 9.99998C4.69653 6.47893 5.92104 2.91933 8.42077 0.526006L9.15424 1.2921C6.9064 3.44425 5.75714 6.70284 5.75714 9.99998C5.75716 13.2971 6.90643 16.5557 9.15427 18.7079L8.42078 19.4739C5.92107 17.0806 4.69655 13.521 4.69653 9.99998Z" fill="#495950"/>
<path fill-rule="evenodd" clip-rule="evenodd" d="M10 4.63332C13.2869 4.63332 16.6294 5.24111 18.895 6.50676C19.1507 6.64959 19.2422 6.97265 19.0994 7.22835C18.9566 7.48403 18.6334 7.57553 18.3778 7.4327C16.3325 6.2902 13.194 5.69392 10 5.69392C6.80604 5.69392 3.66754 6.2902 1.62227 7.4327C1.36657 7.57553 1.04351 7.48403 0.900676 7.22835C0.757858 6.97265 0.849343 6.64959 1.10504 6.50676C3.37079 5.24111 6.71317 4.63332 10 4.63332ZM10 15.0757C13.2869 15.0757 16.6294 14.4679 18.895 13.2023C19.1507 13.0594 19.2422 12.7364 19.0994 12.4807C18.9566 12.225 18.6334 12.1335 18.3778 12.2763C16.3325 13.4188 13.194 14.0151 10 14.0151C6.80604 14.0151 3.66754 13.4188 1.62227 12.2763C1.36657 12.1335 1.04351 12.225 0.900676 12.4807C0.757858 12.7364 0.849343 13.0594 1.10504 13.2023C3.37079 14.4679 6.71317 15.0757 10 15.0757Z" fill="#495950"/>
</svg>
