<svg width="21" height="23" viewBox="0 0 21 23" fill="none" xmlns="http://www.w3.org/2000/svg">
<path d="M4.09155 1.14722L1.09155 5.14722V19.1472C1.09155 19.6776 1.30227 20.1864 1.67734 20.5614C2.05241 20.9365 2.56112 21.1472 3.09155 21.1472H17.0916C17.622 21.1472 18.1307 20.9365 18.5058 20.5614C18.8808 20.1864 19.0916 19.6776 19.0916 19.1472V5.14722L16.0916 1.14722H4.09155Z" stroke="#495950" stroke-width="2" stroke-linecap="round" stroke-linejoin="round"/>
<path d="M1.09155 5.14722H19.0916" stroke="#495950" stroke-width="2" stroke-linecap="round" stroke-linejoin="round"/>
<path d="M14.0916 9.14722C14.0916 10.2081 13.6701 11.2255 12.92 11.9756C12.1698 12.7258 11.1524 13.1472 10.0916 13.1472C9.03069 13.1472 8.01327 12.7258 7.26313 11.9756C6.51298 11.2255 6.09155 10.2081 6.09155 9.14722" stroke="#495950" stroke-width="2" stroke-linecap="round" stroke-linejoin="round"/>
</svg>
