<svg width="26" height="23" viewBox="0 0 26 23" fill="none" xmlns="http://www.w3.org/2000/svg">
<path d="M23.4 2.55556H19.279L16.9 0H9.1L6.721 2.55556H2.6C1.17 2.55556 0 3.70556 0 5.11111V20.4444C0 21.85 1.17 23 2.6 23H23.4C24.83 23 26 21.85 26 20.4444V5.11111C26 3.70556 24.83 2.55556 23.4 2.55556ZM23.4 20.4444H2.6V5.11111H7.865L10.244 2.55556H15.756L18.135 5.11111H23.4V20.4444ZM13 6.38889C9.412 6.38889 6.5 9.25111 6.5 12.7778C6.5 16.3044 9.412 19.1667 13 19.1667C16.588 19.1667 19.5 16.3044 19.5 12.7778C19.5 9.25111 16.588 6.38889 13 6.38889ZM13 16.6111C10.855 16.6111 9.1 14.8861 9.1 12.7778C9.1 10.6694 10.855 8.94444 13 8.94444C15.145 8.94444 16.9 10.6694 16.9 12.7778C16.9 14.8861 15.145 16.6111 13 16.6111Z" fill="#8F959E"/>
</svg>
