<svg width="49" height="46" viewBox="0 0 49 46" fill="none" xmlns="http://www.w3.org/2000/svg">
<path d="M23.5858 0.917514C23.8857 -0.00268579 25.1875 -0.00268245 25.4873 0.917517L30.3916 15.9664C30.5257 16.378 30.9095 16.6565 31.3424 16.6565H47.2065C48.176 16.6565 48.5783 17.8977 47.7932 18.4664L34.9639 27.7597C34.6124 28.0143 34.4653 28.4667 34.5998 28.8794L39.5013 43.9199C39.8014 44.8407 38.7482 45.6078 37.9639 45.0396L25.1232 35.738C24.7732 35.4845 24.2999 35.4845 23.9499 35.738L11.1092 45.0396C10.3249 45.6078 9.27171 44.8407 9.57178 43.9199L14.4733 28.8794C14.6078 28.4667 14.4607 28.0143 14.1092 27.7597L1.27993 18.4664C0.494832 17.8977 0.897134 16.6565 1.86658 16.6565H17.7307C18.1636 16.6565 18.5474 16.378 18.6815 15.9664L23.5858 0.917514Z" fill="#FF981F"/>
</svg>
