<svg width="38" height="38" viewBox="0 0 38 38" fill="none" xmlns="http://www.w3.org/2000/svg">
<circle cx="18.5252" cy="18.5252" r="18.0252" fill="white" stroke="#D9D9D9"/>
<path d="M23.8333 22.8434C23.0311 22.8434 22.3133 23.1596 21.7644 23.6551L14.2383 19.2801C14.2911 19.0377 14.3333 18.7952 14.3333 18.5422C14.3333 18.2892 14.2911 18.0467 14.2383 17.8042L21.68 13.4714C22.25 13.9985 22.9994 14.3253 23.8333 14.3253C25.5856 14.3253 27 12.9127 27 11.1627C27 9.41265 25.5856 8 23.8333 8C22.0811 8 20.6667 9.41265 20.6667 11.1627C20.6667 11.4157 20.7089 11.6581 20.7617 11.9006L13.32 16.2334C12.75 15.7063 12.0006 15.3795 11.1667 15.3795C9.41444 15.3795 8 16.7922 8 18.5422C8 20.2922 9.41444 21.7048 11.1667 21.7048C12.0006 21.7048 12.75 21.378 13.32 20.8509L20.8356 25.2364C20.7828 25.4578 20.7511 25.6898 20.7511 25.9217C20.7511 27.619 22.1339 29 23.8333 29C25.5328 29 26.9156 27.619 26.9156 25.9217C26.9156 24.2244 25.5328 22.8434 23.8333 22.8434Z" fill="#7B7B7B"/>
</svg>
