<svg width="43" height="40" viewBox="0 0 43 40" fill="none" xmlns="http://www.w3.org/2000/svg">
<path d="M42.5 20C42.5 30.7395 33.2004 39.5 21.6594 39.5C10.1184 39.5 0.818848 30.7395 0.818848 20C0.818848 9.26051 10.1184 0.5 21.6594 0.5C33.2004 0.5 42.5 9.26051 42.5 20Z" stroke="#EDEDED" stroke-opacity="0.4"/>
<path d="M24.3817 22.4217C24.3298 22.4217 24.2775 22.4135 24.2268 22.3964C24.0447 22.3351 23.9233 22.1733 23.9233 21.992V18.775L15.3097 14.115C15.0904 13.9963 15.0152 13.7335 15.1418 13.528C15.2684 13.3225 15.5487 13.2521 15.7681 13.3707L24.6111 18.1548C24.7529 18.2315 24.8403 18.3734 24.8403 18.5269V20.7961L25.8092 19.6956C25.9186 19.5713 26.093 19.5149 26.261 19.5493L27.1235 19.7264V17.0435L18.5046 12.3829C18.2853 12.2643 18.2101 12.0015 18.3366 11.796C18.4632 11.5905 18.7436 11.52 18.9629 11.6386L27.8111 16.4232C27.953 16.4999 28.0404 16.6418 28.0404 16.7954V20.2605C28.0404 20.3906 27.9775 20.5137 27.8693 20.5953C27.7612 20.6769 27.6193 20.708 27.4838 20.6802L26.3382 20.4449L24.7355 22.2655C24.6467 22.3663 24.516 22.4217 24.3817 22.4217Z" fill="#2490A9"/>
<path d="M30.9287 15.056C30.9274 15.053 30.9262 15.05 30.9249 15.047C30.9224 15.0417 30.9194 15.0365 30.9166 15.0312C30.8774 14.9536 30.8144 14.8871 30.7323 14.8426L21.8885 10.0576C21.7467 9.98081 21.5719 9.98081 21.4301 10.0576L12.6509 14.8078C12.5553 14.8416 12.4712 14.9053 12.4162 14.9946C12.3665 15.0752 12.3483 15.1645 12.3571 15.2506V24.7851C12.3571 24.9387 12.4445 25.0805 12.5864 25.1573L21.4301 29.9424C21.572 30.0192 21.7467 30.0192 21.8886 29.9424L30.7323 25.1573C30.8741 25.0805 30.9615 24.9386 30.9615 24.7851V15.2604C30.9684 15.1923 30.958 15.1223 30.9287 15.056ZM21.6593 10.9258L29.5917 15.2179L21.6596 19.5038L13.7359 15.213L21.6593 10.9258ZM13.2741 15.9555L21.2008 20.2479V28.8261L13.2741 24.5371V15.9555ZM22.1178 28.8261V20.2482L30.0446 15.9652V24.5371L22.1178 28.8261Z" fill="#353535"/>
<path d="M16.3243 25.1685C16.2465 25.1685 16.1677 25.1499 16.0955 25.1108L14.2008 24.0856C13.9815 23.967 13.9063 23.7042 14.0329 23.4987C14.1596 23.2932 14.44 23.2228 14.6592 23.3414L16.554 24.3666C16.7733 24.4853 16.8484 24.7481 16.7218 24.9536C16.6369 25.0914 16.4828 25.1685 16.3243 25.1685Z" fill="#2490A9"/>
<path d="M15.4718 22.9564C15.394 22.9564 15.3152 22.9378 15.243 22.8988L14.201 22.335C13.9817 22.2163 13.9066 21.9535 14.0332 21.748C14.1598 21.5425 14.4402 21.4721 14.6595 21.5908L15.7015 22.1546C15.9207 22.2732 15.9959 22.536 15.8693 22.7415C15.7844 22.8793 15.6302 22.9564 15.4718 22.9564Z" fill="#2490A9"/>
</svg>
