<svg width="22" height="16" viewBox="0 0 22 16" fill="none" xmlns="http://www.w3.org/2000/svg">
<path fill-rule="evenodd" clip-rule="evenodd" d="M6.76923 7.99999C6.76923 6.82125 7.21497 5.69078 8.0084 4.85729C8.80182 4.02379 9.87793 3.55554 11 3.55554C12.1221 3.55554 13.1982 4.02379 13.9916 4.85729C14.785 5.69078 15.2308 6.82125 15.2308 7.99999C15.2308 9.17873 14.785 10.3092 13.9916 11.1427C13.1982 11.9762 12.1221 12.4444 11 12.4444C9.87793 12.4444 8.80182 11.9762 8.0084 11.1427C7.21497 10.3092 6.76923 9.17873 6.76923 7.99999ZM11 5.33332C10.3268 5.33332 9.68109 5.61427 9.20504 6.11437C8.72899 6.61447 8.46154 7.29274 8.46154 7.99999C8.46154 8.70723 8.72899 9.38551 9.20504 9.8856C9.68109 10.3857 10.3268 10.6667 11 10.6667C11.6732 10.6667 12.3189 10.3857 12.795 9.8856C13.271 9.38551 13.5385 8.70723 13.5385 7.99999C13.5385 7.29274 13.271 6.61447 12.795 6.11437C12.3189 5.61427 11.6732 5.33332 11 5.33332Z" fill="#C4C4C4"/>
<path fill-rule="evenodd" clip-rule="evenodd" d="M2.33877 6.39526C1.86605 7.11111 1.69231 7.6717 1.69231 8C1.69231 8.3283 1.86605 8.88889 2.33877 9.60474C2.79682 10.2957 3.476 11.0459 4.33569 11.7393C6.05846 13.1283 8.4198 14.2222 11 14.2222C13.5802 14.2222 15.9415 13.1283 17.6643 11.7393C18.524 11.0459 19.2032 10.2957 19.6612 9.60474C20.1339 8.88889 20.3077 8.3283 20.3077 8C20.3077 7.6717 20.1339 7.11111 19.6612 6.39526C19.2032 5.7043 18.524 4.95407 17.6643 4.26074C15.9415 2.8717 13.5802 1.77778 11 1.77778C8.4198 1.77778 6.05846 2.8717 4.33569 4.26074C3.476 4.95407 2.79682 5.7043 2.33877 6.39526ZM3.30451 2.85037C5.25744 1.27644 7.9719 0 11 0C14.0281 0 16.7426 1.27644 18.6944 2.85037C19.6725 3.63852 20.4803 4.51793 21.0512 5.38193C21.6063 6.22222 22 7.14311 22 8C22 8.85689 21.6051 9.77778 21.0512 10.6181C20.4803 11.4821 19.6725 12.3603 18.6955 13.1496C16.7437 14.7236 14.0281 16 11 16C7.9719 16 5.25744 14.7236 3.30564 13.1496C2.32749 12.3615 1.51969 11.4821 0.948821 10.6181C0.394872 9.77778 0 8.85689 0 8C0 7.14311 0.394872 6.22222 0.948821 5.38193C1.51969 4.51793 2.32749 3.6397 3.30451 2.85037Z" fill="#C4C4C4"/>
</svg>
