<svg width="48" height="46" viewBox="0 0 48 46" fill="none" xmlns="http://www.w3.org/2000/svg">
<path d="M23.0023 0.994977C23.2272 0.304828 24.2036 0.304829 24.4285 0.99498L29.3327 16.0439C29.5004 16.5584 29.9801 16.9065 30.5212 16.9065H46.3854C47.1124 16.9065 47.4142 17.8374 46.8253 18.2639L33.9961 27.5572C33.5567 27.8755 33.3728 28.4409 33.5409 28.9568L38.4425 43.9974C38.6675 44.688 37.8776 45.2633 37.2894 44.8372L24.4487 35.5356C24.0112 35.2187 23.4196 35.2187 22.9821 35.5356L10.1414 44.8372C9.55316 45.2633 8.76326 44.688 8.98831 43.9974L13.8899 28.9568C14.058 28.4409 13.8741 27.8755 13.4347 27.5572L0.605428 18.2639C0.0166032 17.8374 0.318325 16.9065 1.04541 16.9065H16.9096C17.4507 16.9065 17.9304 16.5584 18.098 16.0439L23.0023 0.994977Z" stroke="#8F959E" stroke-width="0.5"/>
</svg>
