<svg width="135" height="29" viewBox="0 0 135 29" fill="none" xmlns="http://www.w3.org/2000/svg">
<path d="M12.754 22.374C12.754 22.738 12.832 23.0413 12.988 23.284C13.144 23.5093 13.378 23.622 13.69 23.622C13.95 23.622 14.21 23.544 14.47 23.388C14.7473 23.2147 14.99 22.998 15.198 22.738L15.744 23.258C14.9813 24.5407 13.8547 25.182 12.364 25.182C11.4973 25.182 10.804 24.896 10.284 24.324C9.764 23.752 9.504 22.9373 9.504 21.88V20.762C8.516 23.7607 6.79133 25.26 4.33 25.26C3.22067 25.26 2.38 24.9047 1.808 24.194C1.25333 23.466 0.976 22.5647 0.976 21.49V7.164L4.226 6.098V20.658C4.226 21.2993 4.24333 21.8193 4.278 22.218C4.33 22.6167 4.46 22.972 4.668 23.284C4.89333 23.596 5.24 23.752 5.708 23.752C6.54 23.752 7.23333 23.3013 7.788 22.4C8.36 21.4813 8.78467 20.424 9.062 19.228C9.35667 18.0147 9.504 17.0093 9.504 16.212V7.138L12.754 6.098V22.374ZM20.6773 10.934C21.856 10.934 22.4453 11.402 22.4453 12.338C22.428 12.754 22.3413 13.118 22.1853 13.43C22.0293 13.742 21.856 14.0193 21.6653 14.262C21.492 14.5047 21.3706 14.6693 21.3013 14.756C21.5266 15.016 21.934 15.3887 22.5233 15.874C23.0606 16.3073 23.494 16.706 23.8233 17.07C24.1526 17.4167 24.43 17.8673 24.6553 18.422C24.8806 18.9593 24.9933 19.618 24.9933 20.398C24.9933 21.2993 24.768 22.1313 24.3173 22.894C23.884 23.6393 23.286 24.2287 22.5233 24.662C21.7606 25.0953 20.92 25.312 20.0013 25.312C19.3253 25.312 18.6233 25.1907 17.8953 24.948C17.1673 24.7053 16.6213 24.3673 16.2573 23.934L18.1553 21.386C18.5193 21.9407 18.9526 22.4347 19.4553 22.868C19.958 23.3013 20.4606 23.518 20.9633 23.518C21.6046 23.518 22.1593 23.3013 22.6273 22.868C23.0953 22.4347 23.3293 21.8887 23.3293 21.23C23.3293 20.6927 23.104 20.164 22.6533 19.644C22.2026 19.124 21.5613 18.4913 20.7293 17.746C20.1573 17.2433 19.7933 16.9053 19.6373 16.732L17.8693 19.306L16.9333 18.682L18.9613 15.874C18.6146 15.25 18.4413 14.5307 18.4413 13.716C18.4413 12.9187 18.632 12.26 19.0133 11.74C19.3946 11.2027 19.9493 10.934 20.6773 10.934ZM20.6773 12C20.4693 12 20.3306 12.0607 20.2613 12.182C20.192 12.3033 20.1573 12.4767 20.1573 12.702C20.1573 12.8927 20.192 13.0833 20.2613 13.274C20.3306 13.4647 20.4086 13.6553 20.4953 13.846C20.686 13.7073 20.8506 13.4993 20.9893 13.222C21.128 12.9447 21.1973 12.702 21.1973 12.494C21.1973 12.3553 21.1453 12.2427 21.0413 12.156C20.9546 12.052 20.8333 12 20.6773 12ZM34.8024 11.766C35.8077 11.766 36.6484 12.026 37.3244 12.546C38.0004 13.0487 38.3384 13.7853 38.3384 14.756C38.3384 15.536 37.9137 16.4113 37.0644 17.382C36.2324 18.3353 35.2357 19.228 34.0744 20.06C32.9304 20.8747 31.9511 21.464 31.1364 21.828C31.8644 22.9893 32.9304 23.57 34.3344 23.57C35.1144 23.57 35.8944 23.3533 36.6744 22.92C37.4717 22.4693 38.1477 21.88 38.7024 21.152L39.2224 21.776C38.3211 22.9027 37.3677 23.778 36.3624 24.402C35.3744 25.0087 34.1957 25.312 32.8264 25.312C31.7171 25.312 30.7204 25.0607 29.8364 24.558C28.9697 24.0553 28.2851 23.3707 27.7824 22.504C27.2971 21.62 27.0544 20.632 27.0544 19.54C27.0544 18.2227 27.4097 16.966 28.1204 15.77C28.8484 14.5567 29.8104 13.586 31.0064 12.858C32.2024 12.13 33.4677 11.766 34.8024 11.766ZM33.3204 13.456C32.6617 13.456 32.0724 13.6987 31.5524 14.184C31.0324 14.652 30.6251 15.2587 30.3304 16.004C30.0357 16.7493 29.8884 17.5207 29.8884 18.318C29.8884 19.358 30.1137 20.2507 30.5644 20.996C31.2057 20.632 31.8817 20.1293 32.5924 19.488C33.3204 18.8293 33.9271 18.1273 34.4124 17.382C34.8977 16.6367 35.1404 15.9607 35.1404 15.354C35.1404 14.7473 34.9757 14.2793 34.6464 13.95C34.3344 13.6207 33.8924 13.456 33.3204 13.456ZM45.0009 18.578C45.5382 17.3473 46.1709 16.3247 46.8989 15.51L46.8209 15.406C46.2316 15.7527 45.5209 15.926 44.6889 15.926C44.1516 15.926 43.6576 15.8393 43.2069 15.666L41.5169 19.28L40.4509 18.812L42.1929 15.224C42.1409 15.172 41.9762 15.0247 41.6989 14.782C41.4216 14.5393 41.2482 14.2967 41.1789 14.054L43.6749 11.246C43.8656 11.9567 44.2296 12.5807 44.7669 13.118C45.3216 13.638 45.9369 13.898 46.6129 13.898C47.6702 13.898 48.7796 13.5167 49.9409 12.754L50.4089 13.248C49.4036 14.184 48.5456 15.2933 47.8349 16.576C47.1242 17.8587 46.7689 19.15 46.7689 20.45C46.7689 21.2473 46.9682 21.9147 47.3669 22.452C47.7829 22.9893 48.3809 23.258 49.1609 23.258C49.6809 23.258 50.2356 23.0673 50.8249 22.686L51.2149 23.154C50.7122 23.7953 50.1056 24.3067 49.3949 24.688C48.7016 25.0693 47.9736 25.26 47.2109 25.26C46.2576 25.26 45.5209 24.948 45.0009 24.324C44.4809 23.6827 44.2209 22.8767 44.2209 21.906C44.2209 20.9007 44.4809 19.7913 45.0009 18.578Z" fill="#533F00"/>
<path d="M67.4647 6.072C69.198 6.072 70.5934 6.54867 71.6507 7.502C72.7254 8.438 73.2627 9.738 73.2627 11.402C73.2627 12.8407 72.7774 14.1753 71.8067 15.406C70.836 16.6193 69.5707 17.59 68.0107 18.318C66.468 19.0287 64.882 19.384 63.2527 19.384C63.062 19.384 62.8887 19.3753 62.7327 19.358L62.8627 18.63C64.0414 18.474 65.1767 18.1013 66.2687 17.512C67.3607 16.9053 68.2447 16.1253 68.9207 15.172C69.614 14.2013 69.9607 13.1093 69.9607 11.896C69.9607 10.6307 69.5967 9.62533 68.8687 8.88C68.158 8.13467 67.0747 7.762 65.6187 7.762C64.4054 7.762 63.1574 8.048 61.8747 8.62C60.6094 9.192 59.4567 9.93733 58.4167 10.856L57.7407 10.128C59.0407 8.932 60.5227 7.96133 62.1867 7.216C63.8507 6.45333 65.61 6.072 67.4647 6.072ZM62.6287 24.402L59.4827 25.468V10.778L62.6287 9.712V24.402ZM77.9579 18.578C78.4953 17.3473 79.1279 16.3247 79.8559 15.51L79.7779 15.406C79.1886 15.7527 78.4779 15.926 77.6459 15.926C77.1086 15.926 76.6146 15.8393 76.1639 15.666L74.4739 19.28L73.4079 18.812L75.1499 15.224C75.0979 15.172 74.9333 15.0247 74.6559 14.782C74.3786 14.5393 74.2053 14.2967 74.1359 14.054L76.6319 11.246C76.8226 11.9567 77.1866 12.5807 77.7239 13.118C78.2786 13.638 78.8939 13.898 79.5699 13.898C80.6273 13.898 81.7366 13.5167 82.8979 12.754L83.3659 13.248C82.3606 14.184 81.5026 15.2933 80.7919 16.576C80.0813 17.8587 79.7259 19.15 79.7259 20.45C79.7259 21.2473 79.9253 21.9147 80.3239 22.452C80.7399 22.9893 81.3379 23.258 82.1179 23.258C82.6379 23.258 83.1926 23.0673 83.7819 22.686L84.1719 23.154C83.6693 23.7953 83.0626 24.3067 82.3519 24.688C81.6586 25.0693 80.9306 25.26 80.1679 25.26C79.2146 25.26 78.4779 24.948 77.9579 24.324C77.4379 23.6827 77.1779 22.8767 77.1779 21.906C77.1779 20.9007 77.4379 19.7913 77.9579 18.578ZM92.3918 12.312C91.2478 13.1267 90.3465 14.054 89.6878 15.094C89.0465 16.1167 88.7258 17.3213 88.7258 18.708C88.7258 19.4707 88.8731 20.242 89.1678 21.022C89.4625 21.802 89.8958 22.452 90.4678 22.972C91.0398 23.4747 91.7245 23.726 92.5218 23.726C93.5271 23.726 94.3331 23.362 94.9398 22.634C95.5638 21.906 95.8758 21.0047 95.8758 19.93C95.8758 19.1153 95.6591 18.292 95.2258 17.46C94.8098 16.6107 94.2465 15.9 93.5358 15.328C92.8251 14.7387 92.0625 14.4093 91.2478 14.34C91.6118 13.9413 92.0018 13.5773 92.4178 13.248C92.8511 12.9187 93.3885 12.52 94.0298 12.052C95.2778 12.468 96.2658 13.2393 96.9938 14.366C97.7391 15.4927 98.1118 16.732 98.1118 18.084C98.1118 19.28 97.8431 20.4413 97.3058 21.568C96.7858 22.6947 96.0231 23.6133 95.0178 24.324C94.0298 25.0173 92.8771 25.364 91.5598 25.364C90.4678 25.364 89.4625 25.1127 88.5438 24.61C87.6425 24.09 86.9231 23.388 86.3858 22.504C85.8485 21.6027 85.5798 20.6147 85.5798 19.54C85.5798 17.6853 86.1605 16.056 87.3218 14.652C88.5005 13.248 90.0258 12.2687 91.8978 11.714L92.3918 12.312ZM112.844 23.466C112.567 23.9687 112.194 24.3847 111.726 24.714C111.258 25.026 110.747 25.182 110.192 25.182C109.481 25.182 108.935 24.9827 108.554 24.584C108.19 24.1853 108.008 23.6567 108.008 22.998V16.342H103.926V27.574L100.936 28.692V16.342H99.5578L100.156 15.016H100.936V12.312C100.936 11.2893 101.101 10.3273 101.43 9.426C101.759 8.52467 102.297 7.788 103.042 7.216C103.787 6.644 104.749 6.358 105.928 6.358C106.881 6.358 107.809 6.62667 108.71 7.164C109.611 7.684 110.305 8.40333 110.79 9.322L107.878 10.362C107.67 9.478 107.375 8.78467 106.994 8.282C106.613 7.762 106.162 7.502 105.642 7.502C104.983 7.502 104.533 7.74467 104.29 8.23C104.047 8.698 103.926 9.26133 103.926 9.92V15.016H108.008L110.972 14.184V22.946C110.972 23.154 111.015 23.3187 111.102 23.44C111.206 23.5613 111.336 23.622 111.492 23.622C111.821 23.622 112.125 23.4227 112.402 23.024L112.844 23.466ZM118.333 22.608C118.333 22.8333 118.385 23.0327 118.489 23.206C118.611 23.3793 118.793 23.466 119.035 23.466C119.278 23.466 119.521 23.3707 119.763 23.18C120.023 22.9893 120.231 22.7813 120.387 22.556L120.855 23.05C120.561 23.6393 120.127 24.142 119.555 24.558C119.001 24.974 118.403 25.182 117.761 25.182C116.08 25.182 115.239 24.272 115.239 22.452V2.068L118.333 0.949998V22.608ZM129.941 11.766C130.946 11.766 131.787 12.026 132.463 12.546C133.139 13.0487 133.477 13.7853 133.477 14.756C133.477 15.536 133.052 16.4113 132.203 17.382C131.371 18.3353 130.374 19.228 129.213 20.06C128.069 20.8747 127.09 21.464 126.275 21.828C127.003 22.9893 128.069 23.57 129.473 23.57C130.253 23.57 131.033 23.3533 131.813 22.92C132.61 22.4693 133.286 21.88 133.841 21.152L134.361 21.776C133.46 22.9027 132.506 23.778 131.501 24.402C130.513 25.0087 129.334 25.312 127.965 25.312C126.856 25.312 125.859 25.0607 124.975 24.558C124.108 24.0553 123.424 23.3707 122.921 22.504C122.436 21.62 122.193 20.632 122.193 19.54C122.193 18.2227 122.548 16.966 123.259 15.77C123.987 14.5567 124.949 13.586 126.145 12.858C127.341 12.13 128.606 11.766 129.941 11.766ZM128.459 13.456C127.8 13.456 127.211 13.6987 126.691 14.184C126.171 14.652 125.764 15.2587 125.469 16.004C125.174 16.7493 125.027 17.5207 125.027 18.318C125.027 19.358 125.252 20.2507 125.703 20.996C126.344 20.632 127.02 20.1293 127.731 19.488C128.459 18.8293 129.066 18.1273 129.551 17.382C130.036 16.6367 130.279 15.9607 130.279 15.354C130.279 14.7473 130.114 14.2793 129.785 13.95C129.473 13.6207 129.031 13.456 128.459 13.456Z" fill="#495950"/>
</svg>
