<svg width="146" height="31" viewBox="0 0 146 31" fill="none" xmlns="http://www.w3.org/2000/svg">
<path d="M12.024 20.736C11.0533 23.5787 9.372 25 6.98 25C5.888 25 5.056 24.6447 4.484 23.934C3.912 23.206 3.626 22.296 3.626 21.204V9.192C3.626 8.84533 3.548 8.55933 3.392 8.334C3.25333 8.09133 3.01933 7.97 2.69 7.97C2.41267 7.97 2.13533 8.05667 1.858 8.23C1.598 8.386 1.38133 8.58533 1.208 8.828L0.61 8.308C1.45933 7.008 2.55133 6.358 3.886 6.358C4.83933 6.358 5.576 6.67 6.096 7.294C6.63333 7.918 6.902 8.75867 6.902 9.816V20.372C6.902 21.2907 6.98867 22.0447 7.162 22.634C7.35267 23.2233 7.76 23.518 8.384 23.518C9.216 23.518 9.90933 23.0673 10.464 22.166C11.036 21.2473 11.4607 20.1987 11.738 19.02C12.0153 17.824 12.154 16.8273 12.154 16.03V7.138L15.404 6.098V24.298C15.404 25.4593 15.118 26.534 14.546 27.522C13.974 28.51 13.194 29.2987 12.206 29.888C11.2353 30.4773 10.1693 30.772 9.008 30.772C8.08933 30.772 7.28333 30.6507 6.59 30.408C5.89667 30.1653 5.264 29.8013 4.692 29.316L7.162 27.184C7.43933 27.7733 7.82067 28.2933 8.306 28.744C8.80867 29.212 9.346 29.446 9.918 29.446C10.646 29.446 11.2007 29.1773 11.582 28.64C11.9633 28.12 12.154 27.4787 12.154 26.716V20.736H12.024ZM24.7961 12.312C23.6521 13.1267 22.7508 14.054 22.0921 15.094C21.4508 16.1167 21.1301 17.3213 21.1301 18.708C21.1301 19.4707 21.2774 20.242 21.5721 21.022C21.8668 21.802 22.3001 22.452 22.8721 22.972C23.4441 23.4747 24.1288 23.726 24.9261 23.726C25.9314 23.726 26.7374 23.362 27.3441 22.634C27.9681 21.906 28.2801 21.0047 28.2801 19.93C28.2801 19.1153 28.0634 18.292 27.6301 17.46C27.2141 16.6107 26.6508 15.9 25.9401 15.328C25.2294 14.7387 24.4668 14.4093 23.6521 14.34C24.0161 13.9413 24.4061 13.5773 24.8221 13.248C25.2554 12.9187 25.7928 12.52 26.4341 12.052C27.6821 12.468 28.6701 13.2393 29.3981 14.366C30.1434 15.4927 30.5161 16.732 30.5161 18.084C30.5161 19.28 30.2474 20.4413 29.7101 21.568C29.1901 22.6947 28.4274 23.6133 27.4221 24.324C26.4341 25.0173 25.2814 25.364 23.9641 25.364C22.8721 25.364 21.8668 25.1127 20.9481 24.61C20.0468 24.09 19.3274 23.388 18.7901 22.504C18.2528 21.6027 17.9841 20.6147 17.9841 19.54C17.9841 17.6853 18.5648 16.056 19.7261 14.652C20.9048 13.248 22.4301 12.2687 24.3021 11.714L24.7961 12.312ZM44.5981 22.582C44.5981 22.842 44.6588 23.0587 44.7801 23.232C44.9015 23.388 45.0748 23.466 45.3001 23.466C45.6468 23.466 46.0715 23.1713 46.5741 22.582L47.0161 23.05C46.5828 23.934 46.0455 24.5147 45.4041 24.792C44.7628 25.052 44.2775 25.182 43.9481 25.182C43.3068 25.182 42.8128 25.0347 42.4661 24.74C42.1368 24.4453 41.8941 23.96 41.7381 23.284C41.5995 22.5907 41.5301 21.62 41.5301 20.372V19.592L41.4261 17.798H41.3221C40.9061 19.6527 40.2821 21.3687 39.4501 22.946C38.6355 24.5233 37.5608 25.312 36.2261 25.312C35.6368 25.312 35.1948 25.1733 34.9001 24.896C34.6228 24.6013 34.4408 24.2113 34.3541 23.726C34.2848 23.2407 34.2501 22.5733 34.2501 21.724V14.496C34.2501 14.2013 34.1895 13.976 34.0681 13.82C33.9468 13.6467 33.7821 13.56 33.5741 13.56C33.1581 13.56 32.7161 13.872 32.2481 14.496L31.8061 14.002C32.1008 13.3607 32.4735 12.8753 32.9241 12.546C33.3748 12.2167 33.7648 12.0087 34.0941 11.922C34.4408 11.8353 34.6661 11.792 34.7701 11.792C35.7061 11.792 36.3735 12.052 36.7721 12.572C37.1708 13.0747 37.3701 13.716 37.3701 14.496V21.438C37.3701 21.75 37.4048 21.9927 37.4741 22.166C37.5608 22.3393 37.6648 22.426 37.7861 22.426C38.4101 22.426 38.9908 21.802 39.5281 20.554C40.0655 19.2887 40.4988 17.8587 40.8281 16.264C41.1575 14.652 41.3221 13.482 41.3221 12.754L44.5981 11.662V22.582ZM52.4599 18.578C52.9972 17.3473 53.6299 16.3247 54.3579 15.51L54.2799 15.406C53.6906 15.7527 52.9799 15.926 52.1479 15.926C51.6106 15.926 51.1166 15.8393 50.6659 15.666L48.9759 19.28L47.9099 18.812L49.6519 15.224C49.5999 15.172 49.4352 15.0247 49.1579 14.782C48.8806 14.5393 48.7072 14.2967 48.6379 14.054L51.1339 11.246C51.3246 11.9567 51.6886 12.5807 52.2259 13.118C52.7806 13.638 53.3959 13.898 54.0719 13.898C55.1292 13.898 56.2386 13.5167 57.3999 12.754L57.8679 13.248C56.8626 14.184 56.0046 15.2933 55.2939 16.576C54.5832 17.8587 54.2279 19.15 54.2279 20.45C54.2279 21.2473 54.4272 21.9147 54.8259 22.452C55.2419 22.9893 55.8399 23.258 56.6199 23.258C57.1399 23.258 57.6946 23.0673 58.2839 22.686L58.6739 23.154C58.1712 23.7953 57.5646 24.3067 56.8539 24.688C56.1606 25.0693 55.4326 25.26 54.6699 25.26C53.7166 25.26 52.9799 24.948 52.4599 24.324C51.9399 23.6827 51.6799 22.8767 51.6799 21.906C51.6799 20.9007 51.9399 19.7913 52.4599 18.578Z" fill="#533F00"/>
<path d="M74.2477 6.098C75.9464 6.098 77.4457 6.55733 78.7457 7.476C80.0457 8.39467 81.0424 9.59933 81.7357 11.09C82.4464 12.5633 82.8017 14.1147 82.8017 15.744C82.8017 17.4253 82.4724 19.0027 81.8137 20.476C81.155 21.932 80.1757 23.1107 78.8757 24.012C77.593 24.896 76.0504 25.338 74.2477 25.338C72.549 25.338 71.041 24.8787 69.7237 23.96C68.4064 23.0413 67.3924 21.8453 66.6817 20.372C65.971 18.8987 65.6157 17.356 65.6157 15.744C65.6157 14.0627 65.9537 12.4853 66.6297 11.012C67.3057 9.53867 68.2937 8.35133 69.5937 7.45C70.8937 6.54867 72.445 6.098 74.2477 6.098ZM73.2857 7.554C72.2457 7.554 71.3877 7.88333 70.7117 8.542C70.053 9.18333 69.5764 9.998 69.2817 10.986C68.987 11.974 68.8397 12.988 68.8397 14.028C68.8397 15.536 69.0564 17.044 69.4897 18.552C69.9404 20.0427 70.6337 21.2907 71.5697 22.296C72.523 23.3013 73.719 23.804 75.1577 23.804C76.1804 23.804 77.021 23.4747 77.6797 22.816C78.3557 22.14 78.841 21.308 79.1357 20.32C79.4304 19.3147 79.5777 18.3007 79.5777 17.278C79.5777 15.822 79.3524 14.3487 78.9017 12.858C78.4684 11.35 77.775 10.0933 76.8217 9.088C75.8857 8.06533 74.707 7.554 73.2857 7.554ZM88.5654 18.578C89.1027 17.3473 89.7354 16.3247 90.4634 15.51L90.3854 15.406C89.796 15.7527 89.0854 15.926 88.2534 15.926C87.716 15.926 87.222 15.8393 86.7714 15.666L85.0814 19.28L84.0154 18.812L85.7574 15.224C85.7054 15.172 85.5407 15.0247 85.2634 14.782C84.986 14.5393 84.8127 14.2967 84.7434 14.054L87.2394 11.246C87.43 11.9567 87.794 12.5807 88.3314 13.118C88.886 13.638 89.5014 13.898 90.1774 13.898C91.2347 13.898 92.344 13.5167 93.5054 12.754L93.9734 13.248C92.968 14.184 92.11 15.2933 91.3994 16.576C90.6887 17.8587 90.3334 19.15 90.3334 20.45C90.3334 21.2473 90.5327 21.9147 90.9314 22.452C91.3474 22.9893 91.9454 23.258 92.7254 23.258C93.2454 23.258 93.8 23.0673 94.3894 22.686L94.7794 23.154C94.2767 23.7953 93.67 24.3067 92.9594 24.688C92.266 25.0693 91.538 25.26 90.7754 25.26C89.822 25.26 89.0854 24.948 88.5654 24.324C88.0454 23.6827 87.7854 22.8767 87.7854 21.906C87.7854 20.9007 88.0454 19.7913 88.5654 18.578ZM107.939 22.504C107.939 22.7467 107.991 22.9633 108.095 23.154C108.217 23.3273 108.39 23.414 108.615 23.414C108.841 23.414 109.066 23.3187 109.291 23.128C109.534 22.9373 109.716 22.7293 109.837 22.504L110.409 22.998C110.097 23.6047 109.664 24.1247 109.109 24.558C108.572 24.974 107.991 25.182 107.367 25.182C106.466 25.182 105.816 24.9393 105.417 24.454C105.019 23.9513 104.828 23.1887 104.845 22.166H104.715C104.317 23.0673 103.797 23.8213 103.155 24.428C102.514 25.0173 101.743 25.312 100.841 25.312C99.8879 25.312 99.0732 25.0693 98.3972 24.584C97.7212 24.0987 97.2099 23.4487 96.8632 22.634C96.5166 21.802 96.3432 20.8833 96.3432 19.878C96.3432 18.5953 96.6032 17.3387 97.1232 16.108C97.6606 14.86 98.4319 13.8373 99.4372 13.04C100.443 12.2427 101.613 11.844 102.947 11.844C103.623 11.844 104.239 12.0087 104.793 12.338V2.068L107.939 0.975999V22.504ZM102.895 13.508C102.063 13.508 101.37 13.794 100.815 14.366C100.278 14.9207 99.8792 15.614 99.6192 16.446C99.3592 17.2607 99.2292 18.0667 99.2292 18.864C99.2292 19.9387 99.4372 20.9613 99.8532 21.932C100.287 22.9027 100.963 23.388 101.881 23.388C102.991 23.388 103.753 22.8247 104.169 21.698C104.585 20.554 104.793 19.3147 104.793 17.98V14.366C104.221 13.794 103.589 13.508 102.895 13.508ZM119.424 11.766C120.429 11.766 121.27 12.026 121.946 12.546C122.622 13.0487 122.96 13.7853 122.96 14.756C122.96 15.536 122.535 16.4113 121.686 17.382C120.854 18.3353 119.857 19.228 118.696 20.06C117.552 20.8747 116.572 21.464 115.758 21.828C116.486 22.9893 117.552 23.57 118.956 23.57C119.736 23.57 120.516 23.3533 121.296 22.92C122.093 22.4693 122.769 21.88 123.324 21.152L123.844 21.776C122.942 22.9027 121.989 23.778 120.984 24.402C119.996 25.0087 118.817 25.312 117.448 25.312C116.338 25.312 115.342 25.0607 114.458 24.558C113.591 24.0553 112.906 23.3707 112.403 22.504C111.918 21.62 111.676 20.632 111.676 19.54C111.676 18.2227 112.031 16.966 112.742 15.77C113.47 14.5567 114.432 13.586 115.628 12.858C116.824 12.13 118.089 11.766 119.424 11.766ZM117.942 13.456C117.283 13.456 116.694 13.6987 116.174 14.184C115.654 14.652 115.246 15.2587 114.952 16.004C114.657 16.7493 114.509 17.5207 114.509 18.318C114.509 19.358 114.735 20.2507 115.186 20.996C115.827 20.632 116.503 20.1293 117.214 19.488C117.942 18.8293 118.548 18.1273 119.034 17.382C119.519 16.6367 119.762 15.9607 119.762 15.354C119.762 14.7473 119.597 14.2793 119.268 13.95C118.956 13.6207 118.514 13.456 117.942 13.456ZM129.622 18.578C130.159 17.3473 130.792 16.3247 131.52 15.51L131.442 15.406C130.853 15.7527 130.142 15.926 129.31 15.926C128.773 15.926 128.279 15.8393 127.828 15.666L126.138 19.28L125.072 18.812L126.814 15.224C126.762 15.172 126.597 15.0247 126.32 14.782C126.043 14.5393 125.869 14.2967 125.8 14.054L128.296 11.246C128.487 11.9567 128.851 12.5807 129.388 13.118C129.943 13.638 130.558 13.898 131.234 13.898C132.291 13.898 133.401 13.5167 134.562 12.754L135.03 13.248C134.025 14.184 133.167 15.2933 132.456 16.576C131.745 17.8587 131.39 19.15 131.39 20.45C131.39 21.2473 131.589 21.9147 131.988 22.452C132.404 22.9893 133.002 23.258 133.782 23.258C134.302 23.258 134.857 23.0673 135.446 22.686L135.836 23.154C135.333 23.7953 134.727 24.3067 134.016 24.688C133.323 25.0693 132.595 25.26 131.832 25.26C130.879 25.26 130.142 24.948 129.622 24.324C129.102 23.6827 128.842 22.8767 128.842 21.906C128.842 20.9007 129.102 19.7913 129.622 18.578ZM141.404 10.934C142.583 10.934 143.172 11.402 143.172 12.338C143.155 12.754 143.068 13.118 142.912 13.43C142.756 13.742 142.583 14.0193 142.392 14.262C142.219 14.5047 142.097 14.6693 142.028 14.756C142.253 15.016 142.661 15.3887 143.25 15.874C143.787 16.3073 144.221 16.706 144.55 17.07C144.879 17.4167 145.157 17.8673 145.382 18.422C145.607 18.9593 145.72 19.618 145.72 20.398C145.72 21.2993 145.495 22.1313 145.044 22.894C144.611 23.6393 144.013 24.2287 143.25 24.662C142.487 25.0953 141.647 25.312 140.728 25.312C140.052 25.312 139.35 25.1907 138.622 24.948C137.894 24.7053 137.348 24.3673 136.984 23.934L138.882 21.386C139.246 21.9407 139.679 22.4347 140.182 22.868C140.685 23.3013 141.187 23.518 141.69 23.518C142.331 23.518 142.886 23.3013 143.354 22.868C143.822 22.4347 144.056 21.8887 144.056 21.23C144.056 20.6927 143.831 20.164 143.38 19.644C142.929 19.124 142.288 18.4913 141.456 17.746C140.884 17.2433 140.52 16.9053 140.364 16.732L138.596 19.306L137.66 18.682L139.688 15.874C139.341 15.25 139.168 14.5307 139.168 13.716C139.168 12.9187 139.359 12.26 139.74 11.74C140.121 11.2027 140.676 10.934 141.404 10.934ZM141.404 12C141.196 12 141.057 12.0607 140.988 12.182C140.919 12.3033 140.884 12.4767 140.884 12.702C140.884 12.8927 140.919 13.0833 140.988 13.274C141.057 13.4647 141.135 13.6553 141.222 13.846C141.413 13.7073 141.577 13.4993 141.716 13.222C141.855 12.9447 141.924 12.702 141.924 12.494C141.924 12.3553 141.872 12.2427 141.768 12.156C141.681 12.052 141.56 12 141.404 12Z" fill="#495950"/>
</svg>
